<?xml version="1.0" encoding="UTF-8" standalone="no"?>
<!-- Created with Inkscape (http://www.inkscape.org/) -->

<svg
   width="210mm"
   height="297mm"
   viewBox="0 0 210 297"
   version="1.1"
   id="svg5"
   sodipodi:docname="drawing.svg"
   inkscape:version="1.2.2 (b0a8486541, 2022-12-01)"
   xmlns:inkscape="http://www.inkscape.org/namespaces/inkscape"
   xmlns:sodipodi="http://sodipodi.sourceforge.net/DTD/sodipodi-0.dtd"
   xmlns:xlink="http://www.w3.org/1999/xlink"
   xmlns="http://www.w3.org/2000/svg"
   xmlns:svg="http://www.w3.org/2000/svg">
  <sodipodi:namedview
     id="namedview7"
     pagecolor="#ffffff"
     bordercolor="#666666"
     borderopacity="1.0"
     inkscape:pageshadow="2"
     inkscape:pageopacity="0.0"
     inkscape:pagecheckerboard="0"
     inkscape:document-units="mm"
     showgrid="true"
     inkscape:zoom="1.3932941"
     inkscape:cx="305.75024"
     inkscape:cy="881.00567"
     inkscape:window-width="1854"
     inkscape:window-height="1011"
     inkscape:window-x="0"
     inkscape:window-y="0"
     inkscape:window-maximized="1"
     inkscape:current-layer="layer1"
     inkscape:showpageshadow="2"
     inkscape:deskcolor="#d1d1d1">
    <inkscape:grid
       type="xygrid"
       id="grid824" />
  </sodipodi:namedview>
  <defs
     id="defs2">
    <marker
       style="overflow:visible"
       id="marker4820"
       refX="0"
       refY="0"
       orient="auto-start-reverse"
       inkscape:stockid="TriangleStart"
       markerWidth="5.3244081"
       markerHeight="6.155385"
       viewBox="0 0 5.3244081 6.1553851"
       inkscape:isstock="true"
       inkscape:collect="always"
       preserveAspectRatio="xMidYMid">
      <path
         transform="scale(0.5)"
         style="fill:context-stroke;fill-rule:evenodd;stroke:context-stroke;stroke-width:1pt"
         d="M 5.77,0 -2.88,5 V -5 Z"
         id="path4818" />
    </marker>
    <marker
       style="overflow:visible"
       id="TriangleStart"
       refX="0"
       refY="0"
       orient="auto-start-reverse"
       inkscape:stockid="TriangleStart"
       markerWidth="5.3244081"
       markerHeight="6.155385"
       viewBox="0 0 5.3244081 6.1553851"
       inkscape:isstock="true"
       inkscape:collect="always"
       preserveAspectRatio="xMidYMid">
      <path
         transform="scale(0.5)"
         style="fill:context-stroke;fill-rule:evenodd;stroke:context-stroke;stroke-width:1pt"
         d="M 5.77,0 -2.88,5 V -5 Z"
         id="path135" />
    </marker>
    <g
       id="g755">
      <symbol
         overflow="visible"
         id="symbol2303">
        <path
           style="stroke:none;"
           d=""
           id="path1870" />
      </symbol>
      <symbol
         overflow="visible"
         id="symbol2898">
        <path
           style="stroke:none;"
           d="M 6.75 -1.609375 L 6.5 -1.609375 C 6.453125 -1.359375 6.40625 -1.125 6.3125 -0.890625 C 6.265625 -0.734375 6.234375 -0.640625 5.65625 -0.640625 L 4.859375 -0.640625 C 5 -1.203125 5.296875 -1.6875 5.75 -2.34375 C 6.21875 -3.046875 6.625 -3.734375 6.625 -4.53125 C 6.625 -5.90625 5.28125 -7.03125 3.59375 -7.03125 C 1.890625 -7.03125 0.5625 -5.890625 0.5625 -4.53125 C 0.5625 -3.734375 0.96875 -3.046875 1.4375 -2.34375 C 1.875 -1.6875 2.1875 -1.203125 2.328125 -0.640625 L 1.53125 -0.640625 C 0.953125 -0.640625 0.921875 -0.734375 0.875 -0.875 C 0.78125 -1.109375 0.734375 -1.359375 0.6875 -1.609375 L 0.4375 -1.609375 L 0.765625 0 L 2.359375 0 C 2.578125 0 2.609375 0 2.609375 -0.203125 C 2.609375 -0.90625 2.296875 -1.78125 2.078125 -2.421875 C 1.859375 -3 1.578125 -3.78125 1.578125 -4.53125 C 1.578125 -6.125 2.6875 -6.8125 3.59375 -6.8125 C 4.546875 -6.8125 5.609375 -6.09375 5.609375 -4.53125 C 5.609375 -3.78125 5.328125 -3.03125 5.046875 -2.21875 C 4.890625 -1.796875 4.578125 -0.890625 4.578125 -0.203125 C 4.578125 0 4.609375 0 4.828125 0 L 6.421875 0 Z M 6.75 -1.609375 "
           id="path4172" />
      </symbol>
      <symbol
         overflow="visible"
         id="symbol5683">
        <path
           style="stroke:none;"
           d=""
           id="path5160" />
      </symbol>
      <symbol
         overflow="visible"
         id="symbol3517">
        <path
           style="stroke:none;"
           d="M 2.328125 -4.4375 C 2.328125 -4.625 2.328125 -4.625 2.125 -4.625 C 1.671875 -4.1875 1.046875 -4.1875 0.765625 -4.1875 L 0.765625 -3.9375 C 0.921875 -3.9375 1.390625 -3.9375 1.765625 -4.125 L 1.765625 -0.578125 C 1.765625 -0.34375 1.765625 -0.25 1.078125 -0.25 L 0.8125 -0.25 L 0.8125 0 C 0.9375 0 1.796875 -0.03125 2.046875 -0.03125 C 2.265625 -0.03125 3.140625 0 3.296875 0 L 3.296875 -0.25 L 3.03125 -0.25 C 2.328125 -0.25 2.328125 -0.34375 2.328125 -0.578125 Z M 2.328125 -4.4375 "
           id="path3984" />
      </symbol>
    </g>
    <g
       id="g7462">
      <symbol
         overflow="visible"
         id="symbol7914">
        <path
           style="stroke:none;"
           d=""
           id="path47" />
      </symbol>
      <symbol
         overflow="visible"
         id="symbol1497">
        <path
           style="stroke:none;"
           d="M 6.75 -1.609375 L 6.5 -1.609375 C 6.453125 -1.359375 6.40625 -1.125 6.3125 -0.890625 C 6.265625 -0.734375 6.234375 -0.640625 5.65625 -0.640625 L 4.859375 -0.640625 C 5 -1.203125 5.296875 -1.6875 5.75 -2.34375 C 6.21875 -3.046875 6.625 -3.734375 6.625 -4.53125 C 6.625 -5.90625 5.28125 -7.03125 3.59375 -7.03125 C 1.890625 -7.03125 0.5625 -5.890625 0.5625 -4.53125 C 0.5625 -3.734375 0.96875 -3.046875 1.4375 -2.34375 C 1.875 -1.6875 2.1875 -1.203125 2.328125 -0.640625 L 1.53125 -0.640625 C 0.953125 -0.640625 0.921875 -0.734375 0.875 -0.875 C 0.78125 -1.109375 0.734375 -1.359375 0.6875 -1.609375 L 0.4375 -1.609375 L 0.765625 0 L 2.359375 0 C 2.578125 0 2.609375 0 2.609375 -0.203125 C 2.609375 -0.90625 2.296875 -1.78125 2.078125 -2.421875 C 1.859375 -3 1.578125 -3.78125 1.578125 -4.53125 C 1.578125 -6.125 2.6875 -6.8125 3.59375 -6.8125 C 4.546875 -6.8125 5.609375 -6.09375 5.609375 -4.53125 C 5.609375 -3.78125 5.328125 -3.03125 5.046875 -2.21875 C 4.890625 -1.796875 4.578125 -0.890625 4.578125 -0.203125 C 4.578125 0 4.609375 0 4.828125 0 L 6.421875 0 Z M 6.75 -1.609375 "
           id="path9050" />
      </symbol>
      <symbol
         overflow="visible"
         id="symbol4313">
        <path
           style="stroke:none;"
           d=""
           id="path5480" />
      </symbol>
      <symbol
         overflow="visible"
         id="symbol5014">
        <path
           style="stroke:none;"
           d="M 3.515625 -1.265625 L 3.28125 -1.265625 C 3.265625 -1.109375 3.1875 -0.703125 3.09375 -0.640625 C 3.046875 -0.59375 2.515625 -0.59375 2.40625 -0.59375 L 1.125 -0.59375 C 1.859375 -1.234375 2.109375 -1.4375 2.515625 -1.765625 C 3.03125 -2.171875 3.515625 -2.609375 3.515625 -3.265625 C 3.515625 -4.109375 2.78125 -4.625 1.890625 -4.625 C 1.03125 -4.625 0.4375 -4.015625 0.4375 -3.375 C 0.4375 -3.03125 0.734375 -2.984375 0.8125 -2.984375 C 0.96875 -2.984375 1.171875 -3.109375 1.171875 -3.359375 C 1.171875 -3.484375 1.125 -3.734375 0.765625 -3.734375 C 0.984375 -4.21875 1.453125 -4.375 1.78125 -4.375 C 2.484375 -4.375 2.84375 -3.828125 2.84375 -3.265625 C 2.84375 -2.65625 2.40625 -2.1875 2.1875 -1.9375 L 0.515625 -0.265625 C 0.4375 -0.203125 0.4375 -0.1875 0.4375 0 L 3.3125 0 Z M 3.515625 -1.265625 "
           id="path425" />
      </symbol>
    </g>
    <g
       id="g435">
      <symbol
         overflow="visible"
         id="symbol642">
        <path
           style="stroke:none;"
           d=""
           id="path7736" />
      </symbol>
      <symbol
         overflow="visible"
         id="symbol8928">
        <path
           style="stroke:none;"
           d="M 5.515625 -6.78125 L 0.328125 -6.78125 L 0.328125 -6.46875 L 0.5625 -6.46875 C 1.328125 -6.46875 1.359375 -6.359375 1.359375 -6 L 1.359375 -0.78125 C 1.359375 -0.421875 1.328125 -0.3125 0.5625 -0.3125 L 0.328125 -0.3125 L 0.328125 0 C 0.671875 -0.03125 1.453125 -0.03125 1.84375 -0.03125 C 2.25 -0.03125 3.15625 -0.03125 3.515625 0 L 3.515625 -0.3125 L 3.1875 -0.3125 C 2.25 -0.3125 2.25 -0.4375 2.25 -0.78125 L 2.25 -6.078125 C 2.25 -6.40625 2.265625 -6.46875 2.734375 -6.46875 L 3.765625 -6.46875 C 5.1875 -6.46875 5.390625 -5.875 5.546875 -4.53125 L 5.796875 -4.53125 Z M 5.515625 -6.78125 "
           id="path8769" />
      </symbol>
      <symbol
         overflow="visible"
         id="symbol7398">
        <path
           style="stroke:none;"
           d=""
           id="path84" />
      </symbol>
      <symbol
         overflow="visible"
         id="symbol8114">
        <path
           style="stroke:none;"
           d="M 2.328125 -4.4375 C 2.328125 -4.625 2.328125 -4.625 2.125 -4.625 C 1.671875 -4.1875 1.046875 -4.1875 0.765625 -4.1875 L 0.765625 -3.9375 C 0.921875 -3.9375 1.390625 -3.9375 1.765625 -4.125 L 1.765625 -0.578125 C 1.765625 -0.34375 1.765625 -0.25 1.078125 -0.25 L 0.8125 -0.25 L 0.8125 0 C 0.9375 0 1.796875 -0.03125 2.046875 -0.03125 C 2.265625 -0.03125 3.140625 0 3.296875 0 L 3.296875 -0.25 L 3.03125 -0.25 C 2.328125 -0.25 2.328125 -0.34375 2.328125 -0.578125 Z M 2.328125 -4.4375 "
           id="path8129" />
      </symbol>
    </g>
    <g
       id="g8753">
      <symbol
         overflow="visible"
         id="symbol460">
        <path
           style="stroke:none;"
           d=""
           id="path1448" />
      </symbol>
      <symbol
         overflow="visible"
         id="symbol1200">
        <path
           style="stroke:none;"
           d="M 5.515625 -6.78125 L 0.328125 -6.78125 L 0.328125 -6.46875 L 0.5625 -6.46875 C 1.328125 -6.46875 1.359375 -6.359375 1.359375 -6 L 1.359375 -0.78125 C 1.359375 -0.421875 1.328125 -0.3125 0.5625 -0.3125 L 0.328125 -0.3125 L 0.328125 0 C 0.671875 -0.03125 1.453125 -0.03125 1.84375 -0.03125 C 2.25 -0.03125 3.15625 -0.03125 3.515625 0 L 3.515625 -0.3125 L 3.1875 -0.3125 C 2.25 -0.3125 2.25 -0.4375 2.25 -0.78125 L 2.25 -6.078125 C 2.25 -6.40625 2.265625 -6.46875 2.734375 -6.46875 L 3.765625 -6.46875 C 5.1875 -6.46875 5.390625 -5.875 5.546875 -4.53125 L 5.796875 -4.53125 Z M 5.515625 -6.78125 "
           id="path7506" />
      </symbol>
      <symbol
         overflow="visible"
         id="symbol5990">
        <path
           style="stroke:none;"
           d=""
           id="path2187" />
      </symbol>
      <symbol
         overflow="visible"
         id="symbol8648">
        <path
           style="stroke:none;"
           d="M 3.515625 -1.265625 L 3.28125 -1.265625 C 3.265625 -1.109375 3.1875 -0.703125 3.09375 -0.640625 C 3.046875 -0.59375 2.515625 -0.59375 2.40625 -0.59375 L 1.125 -0.59375 C 1.859375 -1.234375 2.109375 -1.4375 2.515625 -1.765625 C 3.03125 -2.171875 3.515625 -2.609375 3.515625 -3.265625 C 3.515625 -4.109375 2.78125 -4.625 1.890625 -4.625 C 1.03125 -4.625 0.4375 -4.015625 0.4375 -3.375 C 0.4375 -3.03125 0.734375 -2.984375 0.8125 -2.984375 C 0.96875 -2.984375 1.171875 -3.109375 1.171875 -3.359375 C 1.171875 -3.484375 1.125 -3.734375 0.765625 -3.734375 C 0.984375 -4.21875 1.453125 -4.375 1.78125 -4.375 C 2.484375 -4.375 2.84375 -3.828125 2.84375 -3.265625 C 2.84375 -2.65625 2.40625 -2.1875 2.1875 -1.9375 L 0.515625 -0.265625 C 0.4375 -0.203125 0.4375 -0.1875 0.4375 0 L 3.3125 0 Z M 3.515625 -1.265625 "
           id="path4551" />
      </symbol>
    </g>
    <marker
       style="overflow:visible"
       id="TriangleStart-7"
       refX="0"
       refY="0"
       orient="auto-start-reverse"
       inkscape:stockid="TriangleStart"
       markerWidth="5.3244081"
       markerHeight="6.155385"
       viewBox="0 0 5.3244081 6.1553851"
       inkscape:isstock="true"
       inkscape:collect="always"
       preserveAspectRatio="xMidYMid">
      <path
         transform="scale(0.5)"
         style="fill:context-stroke;fill-rule:evenodd;stroke:context-stroke;stroke-width:1pt"
         d="M 5.77,0 -2.88,5 V -5 Z"
         id="path135-9" />
    </marker>
    <marker
       style="overflow:visible"
       id="marker4820-0"
       refX="0"
       refY="0"
       orient="auto-start-reverse"
       inkscape:stockid="TriangleStart"
       markerWidth="5.3244081"
       markerHeight="6.155385"
       viewBox="0 0 5.3244081 6.1553851"
       inkscape:isstock="true"
       inkscape:collect="always"
       preserveAspectRatio="xMidYMid">
      <path
         transform="scale(0.5)"
         style="fill:context-stroke;fill-rule:evenodd;stroke:context-stroke;stroke-width:1pt"
         d="M 5.77,0 -2.88,5 V -5 Z"
         id="path4818-2" />
    </marker>
    <marker
       style="overflow:visible"
       id="marker4820-7"
       refX="0"
       refY="0"
       orient="auto-start-reverse"
       inkscape:stockid="TriangleStart"
       markerWidth="5.3244081"
       markerHeight="6.155385"
       viewBox="0 0 5.3244081 6.1553851"
       inkscape:isstock="true"
       inkscape:collect="always"
       preserveAspectRatio="xMidYMid">
      <path
         transform="scale(0.5)"
         style="fill:context-stroke;fill-rule:evenodd;stroke:context-stroke;stroke-width:1pt"
         d="M 5.77,0 -2.88,5 V -5 Z"
         id="path4818-5" />
    </marker>
    <marker
       style="overflow:visible"
       id="marker4820-2-3"
       refX="0"
       refY="0"
       orient="auto-start-reverse"
       inkscape:stockid="TriangleStart"
       markerWidth="5.3244081"
       markerHeight="6.155385"
       viewBox="0 0 5.3244081 6.1553851"
       inkscape:isstock="true"
       inkscape:collect="always"
       preserveAspectRatio="xMidYMid">
      <path
         transform="scale(0.5)"
         style="fill:context-stroke;fill-rule:evenodd;stroke:context-stroke;stroke-width:1pt"
         d="M 5.77,0 -2.88,5 V -5 Z"
         id="path4818-28-6" />
    </marker>
    <marker
       style="overflow:visible"
       id="marker4820-0-3"
       refX="0"
       refY="0"
       orient="auto-start-reverse"
       inkscape:stockid="TriangleStart"
       markerWidth="5.3244081"
       markerHeight="6.155385"
       viewBox="0 0 5.3244081 6.1553851"
       inkscape:isstock="true"
       inkscape:collect="always"
       preserveAspectRatio="xMidYMid">
      <path
         transform="scale(0.5)"
         style="fill:context-stroke;fill-rule:evenodd;stroke:context-stroke;stroke-width:1pt"
         d="M 5.77,0 -2.88,5 V -5 Z"
         id="path4818-2-1" />
    </marker>
    <marker
       style="overflow:visible"
       id="marker4820-0-3-4"
       refX="0"
       refY="0"
       orient="auto-start-reverse"
       inkscape:stockid="TriangleStart"
       markerWidth="5.3244081"
       markerHeight="6.155385"
       viewBox="0 0 5.3244081 6.1553851"
       inkscape:isstock="true"
       inkscape:collect="always"
       preserveAspectRatio="xMidYMid">
      <path
         transform="scale(0.5)"
         style="fill:context-stroke;fill-rule:evenodd;stroke:context-stroke;stroke-width:1pt"
         d="M 5.77,0 -2.88,5 V -5 Z"
         id="path4818-2-1-7" />
    </marker>
  </defs>
  <g
     inkscape:label="Layer 1"
     inkscape:groupmode="layer"
     id="layer1">
    <g
       id="g1025"
       transform="matrix(3.2500001,0,0,3.2500001,-154.78126,-273.84376)"
       inkscape:export-filename="/home/jiping/ODT/ALE/docs/report/fig/1/1.png"
       inkscape:export-xdpi="96"
       inkscape:export-ydpi="96">
      <path
         style="fill:none;stroke:#000000;stroke-width:0.264583px;stroke-linecap:butt;stroke-linejoin:miter;stroke-opacity:1"
         d="m 68.791666,100.54167 h 21.166666 v 21.16666 H 68.791666 Z"
         id="path859"
         inkscape:export-filename="/home/jiping/ODT/ALE/docs/report/fig/1/1.png"
         inkscape:export-xdpi="96"
         inkscape:export-ydpi="96" />
      <path
         style="fill:none;stroke:#000000;stroke-width:0.264583px;stroke-linecap:butt;stroke-linejoin:miter;stroke-opacity:1"
         d="m 74.083332,105.83333 h 10.583334 v 10.58334 H 74.083332 Z"
         id="path861"
         inkscape:export-filename="/home/jiping/ODT/ALE/docs/report/fig/1/1.png"
         inkscape:export-xdpi="96"
         inkscape:export-ydpi="96" />
    </g>
    <g
       inkscape:label=""
       transform="translate(29.421875,-16.729167)"
       id="g985"
       inkscape:export-filename="/home/jiping/ODT/ALE/docs/report/fig/1/1.png"
       inkscape:export-xdpi="96"
       inkscape:export-ydpi="96">
      <g
         id="g6926">
        <g
           style="fill:#000000;fill-opacity:1"
           id="g3130">
          <use
             xlink:href="#symbol2898"
             x="91.925003"
             y="81.962997"
             id="use1411"
             width="100%"
             height="100%" />
        </g>
        <g
           style="fill:#000000;fill-opacity:1"
           id="g8644">
          <use
             xlink:href="#symbol3517"
             x="99.121002"
             y="83.457001"
             id="use8049"
             width="100%"
             height="100%" />
        </g>
      </g>
    </g>
    <g
       inkscape:label=""
       transform="translate(9.8177083,9.0260417)"
       id="g1085"
       inkscape:export-filename="/home/jiping/ODT/ALE/docs/report/fig/1/1.png"
       inkscape:export-xdpi="96"
       inkscape:export-ydpi="96">
      <g
         id="g9782">
        <g
           style="fill:#000000;fill-opacity:1"
           id="g3638">
          <use
             xlink:href="#symbol1497"
             x="91.925003"
             y="81.962997"
             id="use996"
             width="100%"
             height="100%" />
        </g>
        <g
           style="fill:#000000;fill-opacity:1"
           id="g8626">
          <use
             xlink:href="#symbol5014"
             x="99.121002"
             y="83.457001"
             id="use9090"
             width="100%"
             height="100%" />
        </g>
      </g>
    </g>
    <g
       inkscape:label=""
       transform="translate(-36.220744,-3.5968917)"
       id="g1030">
      <g
         id="g5159">
        <g
           style="fill:#000000;fill-opacity:1"
           id="g2110">
          <use
             xlink:href="#symbol8928"
             x="91.925003"
             y="81.962997"
             id="use8481"
             width="100%"
             height="100%" />
        </g>
        <g
           style="fill:#000000;fill-opacity:1"
           id="g2239">
          <use
             xlink:href="#symbol8114"
             x="98.152"
             y="83.457001"
             id="use4406"
             width="100%"
             height="100%" />
        </g>
      </g>
    </g>
    <g
       inkscape:label=""
       transform="translate(-17.888941,7.2495307)"
       id="g1186">
      <g
         id="g7250">
        <g
           style="fill:#000000;fill-opacity:1"
           id="g8516">
          <use
             xlink:href="#symbol1200"
             x="91.925003"
             y="81.962997"
             id="use863"
             width="100%"
             height="100%" />
        </g>
        <g
           style="fill:#000000;fill-opacity:1"
           id="g4693">
          <use
             xlink:href="#symbol8648"
             x="98.152"
             y="83.457001"
             id="use5547"
             width="100%"
             height="100%" />
        </g>
      </g>
    </g>
    <g
       id="g8943"
       transform="matrix(2.9436707,0,0,2.9436707,-159.99006,-342.7473)"
       inkscape:export-filename="../../../../docs/src/_multix/fig/coil.png"
       inkscape:export-xdpi="96"
       inkscape:export-ydpi="96">
      <g
         id="g2825"
         style="fill:#666666;fill-opacity:1;stroke:#666666;stroke-opacity:1"
         inkscape:export-filename="../../../../docs/src/_multix/fig/coil.png"
         inkscape:export-xdpi="96"
         inkscape:export-ydpi="96">
        <path
           id="path2295"
           style="fill:#666666;fill-opacity:1;stroke:#666666;stroke-width:0.254685;stroke-opacity:1"
           d="m 103.84748,202.43879 a 1.9363288,1.9363288 0 0 1 -1.83555,1.83606 v 5.9092 a 7.7453156,7.7453151 0 0 0 7.74526,-7.74526 z" />
        <path
           id="path2295-6"
           style="fill:#666666;fill-opacity:1;stroke:#666666;stroke-width:0.254685;stroke-opacity:1"
           d="m 102.01193,188.74043 a 1.9363288,1.9363288 0 0 1 1.83607,1.83555 h 5.90919 a 7.7453151,7.7453156 0 0 0 -7.74526,-7.74527 z" />
        <path
           id="path2295-0"
           style="fill:#666666;fill-opacity:1;stroke:#666666;stroke-width:0.254685;stroke-opacity:1"
           d="m 88.350421,190.57601 c 0.0502,-0.99231 0.84325,-1.78585 1.83555,-1.8363 l 6e-5,-5.909 c -4.27758,3e-5 -7.7453,3.46772 -7.74533,7.7453 z"
           sodipodi:nodetypes="ccccc" />
        <path
           id="path2295-62"
           style="fill:#666666;fill-opacity:1;stroke:#666666;stroke-width:0.254685;stroke-opacity:1"
           d="m 90.185971,204.27433 a 1.9363288,1.9363288 0 0 1 -1.83607,-1.83554 h -5.9092 a 7.7453151,7.7453156 0 0 0 7.74527,7.74526 z" />
        <path
           style="fill:#666666;fill-opacity:1;stroke:#666666;stroke-width:0.264999;stroke-opacity:1"
           d="M 90.186031,182.83587 H 101.9102 v 5.909 H 90.186031 Z"
           id="path2378"
           sodipodi:nodetypes="ccccc" />
        <path
           style="fill:#666666;fill-opacity:1;stroke:#666666;stroke-width:0.264999;stroke-opacity:1"
           d="m 88.354861,190.49254 v 11.89965 h -5.909 v -11.89965 z"
           id="path2378-6"
           sodipodi:nodetypes="ccccc" />
        <path
           style="fill:#666666;fill-opacity:1;stroke:#666666;stroke-width:0.264999;stroke-opacity:1"
           d="m 90.298531,204.2699 h 11.569999 v 5.909 H 90.298531 Z"
           id="path2378-1"
           sodipodi:nodetypes="ccccc" />
        <path
           style="fill:#666666;fill-opacity:1;stroke:#666666;stroke-width:0.264999;stroke-opacity:1"
           d="m 109.75204,190.68372 v 11.57 h -5.909 v -11.57 z"
           id="path2378-8"
           sodipodi:nodetypes="ccccc" />
      </g>
      <path
         style="fill:#ff0000;stroke:#ff0000;stroke-width:0.264999;stroke-opacity:1;marker-end:url(#TriangleStart)"
         d="M 96.693756,195.894 H 115.28863"
         id="path4151"
         sodipodi:nodetypes="cc" />
      <path
         style="fill:#ff0000;stroke:#ff0000;stroke-width:0.264999;stroke-opacity:1;marker-end:url(#TriangleStart-7)"
         d="M 96.661219,195.87612 V 177.28124"
         id="path4151-2"
         sodipodi:nodetypes="cc" />
      <ellipse
         style="fill:#ff0000;stroke:#ff0000;stroke-width:0.155387;stroke-opacity:1"
         id="path4607"
         cx="96.699989"
         cy="195.73993"
         rx="0.92230648"
         ry="0.9223063" />
      <ellipse
         style="fill:#0000ff;stroke:none;stroke-width:0.155;stroke-dasharray:none;stroke-opacity:1"
         id="path4607-2"
         cx="105.28992"
         cy="205.6514"
         rx="0.92230648"
         ry="0.9223063" />
      <path
         style="fill:#ffffff;stroke:#ffffff;stroke-width:0.264999;stroke-opacity:1;marker-end:url(#marker4820)"
         d="M 89.422197,207.003 H 101.37242"
         id="path4693"
         sodipodi:nodetypes="cc" />
      <path
         style="fill:#ffffff;stroke:#ffffff;stroke-width:0.264999;stroke-opacity:1;marker-end:url(#marker4820-0)"
         d="M 106.30649,202.94134 V 190.99112"
         id="path4693-3"
         sodipodi:nodetypes="cc" />
      <path
         style="fill:#ffffff;stroke:#0000ff;stroke-width:0.264999;stroke-opacity:1;marker-end:url(#marker4820-0-3)"
         d="m 108.03212,197.9127 v -4.02346"
         id="path4693-3-9"
         sodipodi:nodetypes="cc" />
      <path
         style="fill:#ffffff;stroke:#0000ff;stroke-width:0.264999;stroke-opacity:1;marker-end:url(#marker4820-0-3-4)"
         d="m 105.15301,205.77959 2.23368,-2.92511"
         id="path4693-3-9-8"
         sodipodi:nodetypes="cc" />
      <path
         style="fill:#ffffff;stroke:#ffffff;stroke-width:0.264999;stroke-opacity:1;marker-end:url(#marker4820-7)"
         d="M 85.668865,190.05008 V 202.0003"
         id="path4693-9"
         sodipodi:nodetypes="cc" />
      <path
         style="fill:#ffffff;stroke:#ffffff;stroke-width:0.264999;stroke-opacity:1;marker-end:url(#marker4820-2-3)"
         d="M 102.31345,186.81001 H 90.363227"
         id="path4693-97-1"
         sodipodi:nodetypes="cc" />
      <ellipse
         style="fill:#0000ff;stroke:none;stroke-width:0.155;stroke-dasharray:none;stroke-opacity:1"
         id="path4607-2-9"
         cx="107.98909"
         cy="198.26427"
         rx="0.92230648"
         ry="0.9223063" />
    </g>
  </g>
</svg>
