<?xml version="1.0" encoding="UTF-8" standalone="no"?>
<!-- Created with Inkscape (http://www.inkscape.org/) -->

<svg
   width="210mm"
   height="297mm"
   viewBox="0 0 210 297"
   version="1.1"
   id="svg5"
   sodipodi:docname="drawing.svg"
   inkscape:version="1.2.2 (b0a8486541, 2022-12-01)"
   xmlns:inkscape="http://www.inkscape.org/namespaces/inkscape"
   xmlns:sodipodi="http://sodipodi.sourceforge.net/DTD/sodipodi-0.dtd"
   xmlns:xlink="http://www.w3.org/1999/xlink"
   xmlns="http://www.w3.org/2000/svg"
   xmlns:svg="http://www.w3.org/2000/svg">
  <sodipodi:namedview
     id="namedview7"
     pagecolor="#ffffff"
     bordercolor="#666666"
     borderopacity="1.0"
     inkscape:pageshadow="2"
     inkscape:pageopacity="0.0"
     inkscape:pagecheckerboard="0"
     inkscape:document-units="mm"
     showgrid="true"
     inkscape:zoom="1.3932941"
     inkscape:cx="447.8595"
     inkscape:cy="882.44112"
     inkscape:window-width="1854"
     inkscape:window-height="1011"
     inkscape:window-x="0"
     inkscape:window-y="0"
     inkscape:window-maximized="1"
     inkscape:current-layer="layer1"
     inkscape:showpageshadow="2"
     inkscape:deskcolor="#d1d1d1">
    <inkscape:grid
       type="xygrid"
       id="grid824" />
  </sodipodi:namedview>
  <defs
     id="defs2">
    <marker
       style="overflow:visible"
       id="TriangleStart"
       refX="0"
       refY="0"
       orient="auto-start-reverse"
       inkscape:stockid="TriangleStart"
       markerWidth="5.3244081"
       markerHeight="6.155385"
       viewBox="0 0 5.3244081 6.1553851"
       inkscape:isstock="true"
       inkscape:collect="always"
       preserveAspectRatio="xMidYMid">
      <path
         transform="scale(0.5)"
         style="fill:context-stroke;fill-rule:evenodd;stroke:context-stroke;stroke-width:1pt"
         d="M 5.77,0 -2.88,5 V -5 Z"
         id="path135" />
    </marker>
    <g
       id="g755">
      <symbol
         overflow="visible"
         id="symbol2303">
        <path
           style="stroke:none;"
           d=""
           id="path1870" />
      </symbol>
      <symbol
         overflow="visible"
         id="symbol2898">
        <path
           style="stroke:none;"
           d="M 6.75 -1.609375 L 6.5 -1.609375 C 6.453125 -1.359375 6.40625 -1.125 6.3125 -0.890625 C 6.265625 -0.734375 6.234375 -0.640625 5.65625 -0.640625 L 4.859375 -0.640625 C 5 -1.203125 5.296875 -1.6875 5.75 -2.34375 C 6.21875 -3.046875 6.625 -3.734375 6.625 -4.53125 C 6.625 -5.90625 5.28125 -7.03125 3.59375 -7.03125 C 1.890625 -7.03125 0.5625 -5.890625 0.5625 -4.53125 C 0.5625 -3.734375 0.96875 -3.046875 1.4375 -2.34375 C 1.875 -1.6875 2.1875 -1.203125 2.328125 -0.640625 L 1.53125 -0.640625 C 0.953125 -0.640625 0.921875 -0.734375 0.875 -0.875 C 0.78125 -1.109375 0.734375 -1.359375 0.6875 -1.609375 L 0.4375 -1.609375 L 0.765625 0 L 2.359375 0 C 2.578125 0 2.609375 0 2.609375 -0.203125 C 2.609375 -0.90625 2.296875 -1.78125 2.078125 -2.421875 C 1.859375 -3 1.578125 -3.78125 1.578125 -4.53125 C 1.578125 -6.125 2.6875 -6.8125 3.59375 -6.8125 C 4.546875 -6.8125 5.609375 -6.09375 5.609375 -4.53125 C 5.609375 -3.78125 5.328125 -3.03125 5.046875 -2.21875 C 4.890625 -1.796875 4.578125 -0.890625 4.578125 -0.203125 C 4.578125 0 4.609375 0 4.828125 0 L 6.421875 0 Z M 6.75 -1.609375 "
           id="path4172" />
      </symbol>
      <symbol
         overflow="visible"
         id="symbol5683">
        <path
           style="stroke:none;"
           d=""
           id="path5160" />
      </symbol>
      <symbol
         overflow="visible"
         id="symbol3517">
        <path
           style="stroke:none;"
           d="M 2.328125 -4.4375 C 2.328125 -4.625 2.328125 -4.625 2.125 -4.625 C 1.671875 -4.1875 1.046875 -4.1875 0.765625 -4.1875 L 0.765625 -3.9375 C 0.921875 -3.9375 1.390625 -3.9375 1.765625 -4.125 L 1.765625 -0.578125 C 1.765625 -0.34375 1.765625 -0.25 1.078125 -0.25 L 0.8125 -0.25 L 0.8125 0 C 0.9375 0 1.796875 -0.03125 2.046875 -0.03125 C 2.265625 -0.03125 3.140625 0 3.296875 0 L 3.296875 -0.25 L 3.03125 -0.25 C 2.328125 -0.25 2.328125 -0.34375 2.328125 -0.578125 Z M 2.328125 -4.4375 "
           id="path3984" />
      </symbol>
    </g>
    <g
       id="g7462">
      <symbol
         overflow="visible"
         id="symbol7914">
        <path
           style="stroke:none;"
           d=""
           id="path47" />
      </symbol>
      <symbol
         overflow="visible"
         id="symbol1497">
        <path
           style="stroke:none;"
           d="M 6.75 -1.609375 L 6.5 -1.609375 C 6.453125 -1.359375 6.40625 -1.125 6.3125 -0.890625 C 6.265625 -0.734375 6.234375 -0.640625 5.65625 -0.640625 L 4.859375 -0.640625 C 5 -1.203125 5.296875 -1.6875 5.75 -2.34375 C 6.21875 -3.046875 6.625 -3.734375 6.625 -4.53125 C 6.625 -5.90625 5.28125 -7.03125 3.59375 -7.03125 C 1.890625 -7.03125 0.5625 -5.890625 0.5625 -4.53125 C 0.5625 -3.734375 0.96875 -3.046875 1.4375 -2.34375 C 1.875 -1.6875 2.1875 -1.203125 2.328125 -0.640625 L 1.53125 -0.640625 C 0.953125 -0.640625 0.921875 -0.734375 0.875 -0.875 C 0.78125 -1.109375 0.734375 -1.359375 0.6875 -1.609375 L 0.4375 -1.609375 L 0.765625 0 L 2.359375 0 C 2.578125 0 2.609375 0 2.609375 -0.203125 C 2.609375 -0.90625 2.296875 -1.78125 2.078125 -2.421875 C 1.859375 -3 1.578125 -3.78125 1.578125 -4.53125 C 1.578125 -6.125 2.6875 -6.8125 3.59375 -6.8125 C 4.546875 -6.8125 5.609375 -6.09375 5.609375 -4.53125 C 5.609375 -3.78125 5.328125 -3.03125 5.046875 -2.21875 C 4.890625 -1.796875 4.578125 -0.890625 4.578125 -0.203125 C 4.578125 0 4.609375 0 4.828125 0 L 6.421875 0 Z M 6.75 -1.609375 "
           id="path9050" />
      </symbol>
      <symbol
         overflow="visible"
         id="symbol4313">
        <path
           style="stroke:none;"
           d=""
           id="path5480" />
      </symbol>
      <symbol
         overflow="visible"
         id="symbol5014">
        <path
           style="stroke:none;"
           d="M 3.515625 -1.265625 L 3.28125 -1.265625 C 3.265625 -1.109375 3.1875 -0.703125 3.09375 -0.640625 C 3.046875 -0.59375 2.515625 -0.59375 2.40625 -0.59375 L 1.125 -0.59375 C 1.859375 -1.234375 2.109375 -1.4375 2.515625 -1.765625 C 3.03125 -2.171875 3.515625 -2.609375 3.515625 -3.265625 C 3.515625 -4.109375 2.78125 -4.625 1.890625 -4.625 C 1.03125 -4.625 0.4375 -4.015625 0.4375 -3.375 C 0.4375 -3.03125 0.734375 -2.984375 0.8125 -2.984375 C 0.96875 -2.984375 1.171875 -3.109375 1.171875 -3.359375 C 1.171875 -3.484375 1.125 -3.734375 0.765625 -3.734375 C 0.984375 -4.21875 1.453125 -4.375 1.78125 -4.375 C 2.484375 -4.375 2.84375 -3.828125 2.84375 -3.265625 C 2.84375 -2.65625 2.40625 -2.1875 2.1875 -1.9375 L 0.515625 -0.265625 C 0.4375 -0.203125 0.4375 -0.1875 0.4375 0 L 3.3125 0 Z M 3.515625 -1.265625 "
           id="path425" />
      </symbol>
    </g>
    <g
       id="g435">
      <symbol
         overflow="visible"
         id="symbol642">
        <path
           style="stroke:none;"
           d=""
           id="path7736" />
      </symbol>
      <symbol
         overflow="visible"
         id="symbol8928">
        <path
           style="stroke:none;"
           d="M 5.515625 -6.78125 L 0.328125 -6.78125 L 0.328125 -6.46875 L 0.5625 -6.46875 C 1.328125 -6.46875 1.359375 -6.359375 1.359375 -6 L 1.359375 -0.78125 C 1.359375 -0.421875 1.328125 -0.3125 0.5625 -0.3125 L 0.328125 -0.3125 L 0.328125 0 C 0.671875 -0.03125 1.453125 -0.03125 1.84375 -0.03125 C 2.25 -0.03125 3.15625 -0.03125 3.515625 0 L 3.515625 -0.3125 L 3.1875 -0.3125 C 2.25 -0.3125 2.25 -0.4375 2.25 -0.78125 L 2.25 -6.078125 C 2.25 -6.40625 2.265625 -6.46875 2.734375 -6.46875 L 3.765625 -6.46875 C 5.1875 -6.46875 5.390625 -5.875 5.546875 -4.53125 L 5.796875 -4.53125 Z M 5.515625 -6.78125 "
           id="path8769" />
      </symbol>
      <symbol
         overflow="visible"
         id="symbol7398">
        <path
           style="stroke:none;"
           d=""
           id="path84" />
      </symbol>
      <symbol
         overflow="visible"
         id="symbol8114">
        <path
           style="stroke:none;"
           d="M 2.328125 -4.4375 C 2.328125 -4.625 2.328125 -4.625 2.125 -4.625 C 1.671875 -4.1875 1.046875 -4.1875 0.765625 -4.1875 L 0.765625 -3.9375 C 0.921875 -3.9375 1.390625 -3.9375 1.765625 -4.125 L 1.765625 -0.578125 C 1.765625 -0.34375 1.765625 -0.25 1.078125 -0.25 L 0.8125 -0.25 L 0.8125 0 C 0.9375 0 1.796875 -0.03125 2.046875 -0.03125 C 2.265625 -0.03125 3.140625 0 3.296875 0 L 3.296875 -0.25 L 3.03125 -0.25 C 2.328125 -0.25 2.328125 -0.34375 2.328125 -0.578125 Z M 2.328125 -4.4375 "
           id="path8129" />
      </symbol>
    </g>
    <g
       id="g8753">
      <symbol
         overflow="visible"
         id="symbol460">
        <path
           style="stroke:none;"
           d=""
           id="path1448" />
      </symbol>
      <symbol
         overflow="visible"
         id="symbol1200">
        <path
           style="stroke:none;"
           d="M 5.515625 -6.78125 L 0.328125 -6.78125 L 0.328125 -6.46875 L 0.5625 -6.46875 C 1.328125 -6.46875 1.359375 -6.359375 1.359375 -6 L 1.359375 -0.78125 C 1.359375 -0.421875 1.328125 -0.3125 0.5625 -0.3125 L 0.328125 -0.3125 L 0.328125 0 C 0.671875 -0.03125 1.453125 -0.03125 1.84375 -0.03125 C 2.25 -0.03125 3.15625 -0.03125 3.515625 0 L 3.515625 -0.3125 L 3.1875 -0.3125 C 2.25 -0.3125 2.25 -0.4375 2.25 -0.78125 L 2.25 -6.078125 C 2.25 -6.40625 2.265625 -6.46875 2.734375 -6.46875 L 3.765625 -6.46875 C 5.1875 -6.46875 5.390625 -5.875 5.546875 -4.53125 L 5.796875 -4.53125 Z M 5.515625 -6.78125 "
           id="path7506" />
      </symbol>
      <symbol
         overflow="visible"
         id="symbol5990">
        <path
           style="stroke:none;"
           d=""
           id="path2187" />
      </symbol>
      <symbol
         overflow="visible"
         id="symbol8648">
        <path
           style="stroke:none;"
           d="M 3.515625 -1.265625 L 3.28125 -1.265625 C 3.265625 -1.109375 3.1875 -0.703125 3.09375 -0.640625 C 3.046875 -0.59375 2.515625 -0.59375 2.40625 -0.59375 L 1.125 -0.59375 C 1.859375 -1.234375 2.109375 -1.4375 2.515625 -1.765625 C 3.03125 -2.171875 3.515625 -2.609375 3.515625 -3.265625 C 3.515625 -4.109375 2.78125 -4.625 1.890625 -4.625 C 1.03125 -4.625 0.4375 -4.015625 0.4375 -3.375 C 0.4375 -3.03125 0.734375 -2.984375 0.8125 -2.984375 C 0.96875 -2.984375 1.171875 -3.109375 1.171875 -3.359375 C 1.171875 -3.484375 1.125 -3.734375 0.765625 -3.734375 C 0.984375 -4.21875 1.453125 -4.375 1.78125 -4.375 C 2.484375 -4.375 2.84375 -3.828125 2.84375 -3.265625 C 2.84375 -2.65625 2.40625 -2.1875 2.1875 -1.9375 L 0.515625 -0.265625 C 0.4375 -0.203125 0.4375 -0.1875 0.4375 0 L 3.3125 0 Z M 3.515625 -1.265625 "
           id="path4551" />
      </symbol>
    </g>
    <marker
       style="overflow:visible"
       id="TriangleStart-7"
       refX="0"
       refY="0"
       orient="auto-start-reverse"
       inkscape:stockid="TriangleStart"
       markerWidth="5.3244081"
       markerHeight="6.155385"
       viewBox="0 0 5.3244081 6.1553851"
       inkscape:isstock="true"
       inkscape:collect="always"
       preserveAspectRatio="xMidYMid">
      <path
         transform="scale(0.5)"
         style="fill:context-stroke;fill-rule:evenodd;stroke:context-stroke;stroke-width:1pt"
         d="M 5.77,0 -2.88,5 V -5 Z"
         id="path135-9" />
    </marker>
    <marker
       style="overflow:visible"
       id="marker4820-2-3"
       refX="0"
       refY="0"
       orient="auto-start-reverse"
       inkscape:stockid="TriangleStart"
       markerWidth="5.3244081"
       markerHeight="6.155385"
       viewBox="0 0 5.3244081 6.1553851"
       inkscape:isstock="true"
       inkscape:collect="always"
       preserveAspectRatio="xMidYMid">
      <path
         transform="scale(0.5)"
         style="fill:context-stroke;fill-rule:evenodd;stroke:context-stroke;stroke-width:1pt"
         d="M 5.77,0 -2.88,5 V -5 Z"
         id="path4818-28-6" />
    </marker>
    <marker
       style="overflow:visible"
       id="marker4820-0-3"
       refX="0"
       refY="0"
       orient="auto-start-reverse"
       inkscape:stockid="TriangleStart"
       markerWidth="5.3244081"
       markerHeight="6.155385"
       viewBox="0 0 5.3244081 6.1553851"
       inkscape:isstock="true"
       inkscape:collect="always"
       preserveAspectRatio="xMidYMid">
      <path
         transform="scale(0.5)"
         style="fill:context-stroke;fill-rule:evenodd;stroke:context-stroke;stroke-width:1pt"
         d="M 5.77,0 -2.88,5 V -5 Z"
         id="path4818-2-1" />
    </marker>
    <marker
       style="overflow:visible"
       id="marker4820-0-3-4"
       refX="0"
       refY="0"
       orient="auto-start-reverse"
       inkscape:stockid="TriangleStart"
       markerWidth="5.3244081"
       markerHeight="6.155385"
       viewBox="0 0 5.3244081 6.1553851"
       inkscape:isstock="true"
       inkscape:collect="always"
       preserveAspectRatio="xMidYMid">
      <path
         transform="scale(0.5)"
         style="fill:context-stroke;fill-rule:evenodd;stroke:context-stroke;stroke-width:1pt"
         d="M 5.77,0 -2.88,5 V -5 Z"
         id="path4818-2-1-7" />
    </marker>
    <clipPath
       id="clipPath8322">
      <path
         clip-rule="nonzero"
         d="M 0,0 H 4 V 9.964844 H 0 Z m 0,0"
         id="path8575" />
    </clipPath>
    <clipPath
       id="clipPath3981">
      <path
         clip-rule="nonzero"
         d="m 14,6 h 2 v 3.964844 h -2 z m 0,0"
         id="path1169" />
    </clipPath>
    <clipPath
       id="clipPath8752">
      <path
         clip-rule="nonzero"
         d="m 28,6 h 2 v 3.964844 h -2 z m 0,0"
         id="path4443" />
    </clipPath>
    <clipPath
       id="clipPath1161">
      <path
         clip-rule="nonzero"
         d="m 37,4 h 5 v 5.964844 h -5 z m 0,0"
         id="path5547" />
    </clipPath>
    <clipPath
       id="clipPath1214">
      <path
         clip-rule="nonzero"
         d="m 42,0 h 3 v 9.964844 h -3 z m 0,0"
         id="path2764" />
    </clipPath>
    <clipPath
       id="clipPath9908">
      <path
         clip-rule="nonzero"
         d="M 0,0 H 4 V 9.964844 H 0 Z m 0,0"
         id="path6329" />
    </clipPath>
    <clipPath
       id="clipPath2575">
      <path
         clip-rule="nonzero"
         d="m 13,6 h 2 v 3.964844 h -2 z m 0,0"
         id="path4481" />
    </clipPath>
    <clipPath
       id="clipPath7483">
      <path
         clip-rule="nonzero"
         d="m 26,6 h 2 v 3.964844 h -2 z m 0,0"
         id="path1426" />
    </clipPath>
    <clipPath
       id="clipPath7122">
      <path
         clip-rule="nonzero"
         d="m 34,4 h 5 v 5.964844 h -5 z m 0,0"
         id="path2783" />
    </clipPath>
    <clipPath
       id="clipPath5750">
      <path
         clip-rule="nonzero"
         d="m 39,0 h 3 v 9.964844 h -3 z m 0,0"
         id="path1103" />
    </clipPath>
    <clipPath
       id="clipPath6319">
      <path
         clip-rule="nonzero"
         d="M 0,0 H 4 V 9.964844 H 0 Z m 0,0"
         id="path3723" />
    </clipPath>
    <clipPath
       id="clipPath8106">
      <path
         clip-rule="nonzero"
         d="M 3,3 H 9 V 9.964844 H 3 Z m 0,0"
         id="path1268" />
    </clipPath>
    <clipPath
       id="clipPath8006">
      <path
         clip-rule="nonzero"
         d="m 14,6 h 2 v 3.964844 h -2 z m 0,0"
         id="path1013" />
    </clipPath>
    <clipPath
       id="clipPath4440">
      <path
         clip-rule="nonzero"
         d="m 17,3 h 6 v 6.964844 h -6 z m 0,0"
         id="path4241" />
    </clipPath>
    <clipPath
       id="clipPath6883">
      <path
         clip-rule="nonzero"
         d="m 28,6 h 2 v 3.964844 h -2 z m 0,0"
         id="path5320" />
    </clipPath>
    <clipPath
       id="clipPath6568">
      <path
         clip-rule="nonzero"
         d="m 31,3 h 6 v 6.964844 h -6 z m 0,0"
         id="path6070" />
    </clipPath>
    <clipPath
       id="clipPath1072">
      <path
         clip-rule="nonzero"
         d="m 37,4 h 4 v 5.964844 h -4 z m 0,0"
         id="path1012" />
    </clipPath>
    <clipPath
       id="clipPath8936">
      <path
         clip-rule="nonzero"
         d="m 41,0 h 4 v 9.964844 h -4 z m 0,0"
         id="path1318" />
    </clipPath>
    <marker
       style="overflow:visible"
       id="marker4820-2-3-3"
       refX="0"
       refY="0"
       orient="auto-start-reverse"
       inkscape:stockid="TriangleStart"
       markerWidth="5.3244081"
       markerHeight="6.155385"
       viewBox="0 0 5.3244081 6.1553851"
       inkscape:isstock="true"
       inkscape:collect="always"
       preserveAspectRatio="xMidYMid">
      <path
         transform="scale(0.5)"
         style="fill:context-stroke;fill-rule:evenodd;stroke:context-stroke;stroke-width:1pt"
         d="M 5.77,0 -2.88,5 V -5 Z"
         id="path4818-28-6-6" />
    </marker>
    <marker
       style="overflow:visible"
       id="marker4820-2-3-5"
       refX="0"
       refY="0"
       orient="auto-start-reverse"
       inkscape:stockid="TriangleStart"
       markerWidth="5.3244081"
       markerHeight="6.155385"
       viewBox="0 0 5.3244081 6.1553851"
       inkscape:isstock="true"
       inkscape:collect="always"
       preserveAspectRatio="xMidYMid">
      <path
         transform="scale(0.5)"
         style="fill:context-stroke;fill-rule:evenodd;stroke:context-stroke;stroke-width:1pt"
         d="M 5.77,0 -2.88,5 V -5 Z"
         id="path4818-28-6-3" />
    </marker>
    <marker
       style="overflow:visible"
       id="marker4820-2-3-6"
       refX="0"
       refY="0"
       orient="auto-start-reverse"
       inkscape:stockid="TriangleStart"
       markerWidth="5.3244081"
       markerHeight="6.155385"
       viewBox="0 0 5.3244081 6.1553851"
       inkscape:isstock="true"
       inkscape:collect="always"
       preserveAspectRatio="xMidYMid">
      <path
         transform="scale(0.5)"
         style="fill:context-stroke;fill-rule:evenodd;stroke:context-stroke;stroke-width:1pt"
         d="M 5.77,0 -2.88,5 V -5 Z"
         id="path4818-28-6-2" />
    </marker>
  </defs>
  <g
     inkscape:label="Layer 1"
     inkscape:groupmode="layer"
     id="layer1">
    <g
       id="g1025"
       transform="matrix(3.2500001,0,0,3.2500001,-154.78126,-273.84376)"
       inkscape:export-filename="/home/jiping/ODT/ALE/docs/report/fig/1/1.png"
       inkscape:export-xdpi="96"
       inkscape:export-ydpi="96">
      <path
         style="fill:none;stroke:#000000;stroke-width:0.264583px;stroke-linecap:butt;stroke-linejoin:miter;stroke-opacity:1"
         d="m 68.791666,100.54167 h 21.166666 v 21.16666 H 68.791666 Z"
         id="path859"
         inkscape:export-filename="/home/jiping/ODT/ALE/docs/report/fig/1/1.png"
         inkscape:export-xdpi="96"
         inkscape:export-ydpi="96" />
      <path
         style="fill:none;stroke:#000000;stroke-width:0.264583px;stroke-linecap:butt;stroke-linejoin:miter;stroke-opacity:1"
         d="m 74.083332,105.83333 h 10.583334 v 10.58334 H 74.083332 Z"
         id="path861"
         inkscape:export-filename="/home/jiping/ODT/ALE/docs/report/fig/1/1.png"
         inkscape:export-xdpi="96"
         inkscape:export-ydpi="96" />
    </g>
    <g
       inkscape:label=""
       transform="translate(29.421875,-16.729167)"
       id="g985"
       inkscape:export-filename="/home/jiping/ODT/ALE/docs/report/fig/1/1.png"
       inkscape:export-xdpi="96"
       inkscape:export-ydpi="96">
      <g
         id="g6926">
        <g
           style="fill:#000000;fill-opacity:1"
           id="g3130">
          <use
             xlink:href="#symbol2898"
             x="91.925003"
             y="81.962997"
             id="use1411"
             width="100%"
             height="100%" />
        </g>
        <g
           style="fill:#000000;fill-opacity:1"
           id="g8644">
          <use
             xlink:href="#symbol3517"
             x="99.121002"
             y="83.457001"
             id="use8049"
             width="100%"
             height="100%" />
        </g>
      </g>
    </g>
    <g
       inkscape:label=""
       transform="translate(9.8177083,9.0260417)"
       id="g1085"
       inkscape:export-filename="/home/jiping/ODT/ALE/docs/report/fig/1/1.png"
       inkscape:export-xdpi="96"
       inkscape:export-ydpi="96">
      <g
         id="g9782">
        <g
           style="fill:#000000;fill-opacity:1"
           id="g3638">
          <use
             xlink:href="#symbol1497"
             x="91.925003"
             y="81.962997"
             id="use996"
             width="100%"
             height="100%" />
        </g>
        <g
           style="fill:#000000;fill-opacity:1"
           id="g8626">
          <use
             xlink:href="#symbol5014"
             x="99.121002"
             y="83.457001"
             id="use9090"
             width="100%"
             height="100%" />
        </g>
      </g>
    </g>
    <g
       inkscape:label=""
       transform="translate(-36.220744,-3.5968917)"
       id="g1030">
      <g
         id="g5159">
        <g
           style="fill:#000000;fill-opacity:1"
           id="g2110">
          <use
             xlink:href="#symbol8928"
             x="91.925003"
             y="81.962997"
             id="use8481"
             width="100%"
             height="100%" />
        </g>
        <g
           style="fill:#000000;fill-opacity:1"
           id="g2239">
          <use
             xlink:href="#symbol8114"
             x="98.152"
             y="83.457001"
             id="use4406"
             width="100%"
             height="100%" />
        </g>
      </g>
    </g>
    <g
       inkscape:label=""
       transform="translate(-17.888941,7.2495307)"
       id="g1186">
      <g
         id="g7250">
        <g
           style="fill:#000000;fill-opacity:1"
           id="g8516">
          <use
             xlink:href="#symbol1200"
             x="91.925003"
             y="81.962997"
             id="use863"
             width="100%"
             height="100%" />
        </g>
        <g
           style="fill:#000000;fill-opacity:1"
           id="g4693">
          <use
             xlink:href="#symbol8648"
             x="98.152"
             y="83.457001"
             id="use5547"
             width="100%"
             height="100%" />
        </g>
      </g>
    </g>
    <g
       id="g2825"
       style="fill:#666666;fill-opacity:1;stroke:#666666;stroke-opacity:1"
       inkscape:export-filename="coil.png"
       inkscape:export-xdpi="96"
       inkscape:export-ydpi="96"
       transform="matrix(2.9436707,0,0,2.9436707,-159.99006,-342.7473)">
      <path
         id="path2295"
         style="fill:#666666;fill-opacity:1;stroke:#666666;stroke-width:0.254685;stroke-opacity:1"
         d="m 103.84748,202.43879 a 1.9363288,1.9363288 0 0 1 -1.83555,1.83606 v 5.9092 a 7.7453156,7.7453151 0 0 0 7.74526,-7.74526 z" />
      <path
         id="path2295-6"
         style="fill:#666666;fill-opacity:1;stroke:#666666;stroke-width:0.254685;stroke-opacity:1"
         d="m 102.01193,188.74043 a 1.9363288,1.9363288 0 0 1 1.83607,1.83555 h 5.90919 a 7.7453151,7.7453156 0 0 0 -7.74526,-7.74527 z" />
      <path
         id="path2295-0"
         style="fill:#666666;fill-opacity:1;stroke:#666666;stroke-width:0.254685;stroke-opacity:1"
         d="m 88.350421,190.57601 c 0.0502,-0.99231 0.84325,-1.78585 1.83555,-1.8363 l 6e-5,-5.909 c -4.27758,3e-5 -7.7453,3.46772 -7.74533,7.7453 z"
         sodipodi:nodetypes="ccccc" />
      <path
         id="path2295-62"
         style="fill:#666666;fill-opacity:1;stroke:#666666;stroke-width:0.254685;stroke-opacity:1"
         d="m 90.185971,204.27433 a 1.9363288,1.9363288 0 0 1 -1.83607,-1.83554 h -5.9092 a 7.7453151,7.7453156 0 0 0 7.74527,7.74526 z" />
      <path
         style="fill:#666666;fill-opacity:1;stroke:#666666;stroke-width:0.264999;stroke-opacity:1"
         d="M 90.186031,182.83587 H 101.9102 v 5.909 H 90.186031 Z"
         id="path2378"
         sodipodi:nodetypes="ccccc" />
      <path
         style="fill:#666666;fill-opacity:1;stroke:#666666;stroke-width:0.264999;stroke-opacity:1"
         d="m 88.354861,190.49254 v 11.89965 h -5.909 v -11.89965 z"
         id="path2378-6"
         sodipodi:nodetypes="ccccc" />
      <path
         style="fill:#666666;fill-opacity:1;stroke:#666666;stroke-width:0.264999;stroke-opacity:1"
         d="m 90.298531,204.2699 h 11.569999 v 5.909 H 90.298531 Z"
         id="path2378-1"
         sodipodi:nodetypes="ccccc" />
      <path
         style="fill:#666666;fill-opacity:1;stroke:#666666;stroke-width:0.264999;stroke-opacity:1"
         d="m 109.75204,190.68372 v 11.57 h -5.909 v -11.57 z"
         id="path2378-8"
         sodipodi:nodetypes="ccccc" />
    </g>
    <path
       style="fill:#ff0000;stroke:#ff0000;stroke-width:0.78007;stroke-opacity:1;marker-end:url(#TriangleStart)"
       d="M 124.64452,233.90013 H 179.3817"
       id="path4151"
       sodipodi:nodetypes="cc" />
    <path
       style="fill:#ff0000;stroke:#ff0000;stroke-width:0.78007;stroke-opacity:1;marker-end:url(#TriangleStart-7)"
       d="M 124.54874,233.8475 V 179.11029"
       id="path4151-2"
       sodipodi:nodetypes="cc" />
    <ellipse
       style="fill:#ff0000;stroke:#ff0000;stroke-width:0.457408;stroke-opacity:1"
       id="path4607"
       cx="124.66286"
       cy="233.44659"
       rx="2.7149665"
       ry="2.7149661" />
    <ellipse
       style="fill:#0000ff;stroke:none;stroke-width:0.456269;stroke-dasharray:none;stroke-opacity:1"
       id="path4607-2"
       cx="149.94878"
       cy="262.62268"
       rx="2.7149665"
       ry="2.7149661" />
    <path
       style="fill:#ffffff;stroke:#0000ff;stroke-width:0.78007;stroke-opacity:1;marker-end:url(#marker4820-0-3)"
       d="M 158.02093,239.84252 V 227.99877"
       id="path4693-3-9"
       sodipodi:nodetypes="cc" />
    <path
       style="fill:#ffffff;stroke:#0000ff;stroke-width:0.78007;stroke-opacity:1;marker-end:url(#marker4820-0-3-4)"
       d="m 149.54577,263.00005 6.57522,-8.61056"
       id="path4693-3-9-8"
       sodipodi:nodetypes="cc" />
    <path
       style="fill:#ffffff;stroke:#ffffff;stroke-width:0.78007;stroke-opacity:1;marker-end:url(#marker4820-2-3)"
       d="M 136.35564,204.95674 H 112.36516"
       id="path4693-97-1"
       sodipodi:nodetypes="cc" />
    <path
       style="fill:#ffffff;stroke:#ffffff;stroke-width:0.78007;stroke-opacity:1;marker-end:url(#marker4820-2-3-3)"
       d="m 91.570133,221.89146 v 23.99048"
       id="path4693-97-1-7"
       sodipodi:nodetypes="cc" />
    <path
       style="fill:#ffffff;stroke:#ffffff;stroke-width:0.78007;stroke-opacity:1;marker-end:url(#marker4820-2-3-5)"
       d="m 109.59507,266.71724 h 23.99048"
       id="path4693-97-1-5"
       sodipodi:nodetypes="cc" />
    <path
       style="fill:#ffffff;stroke:#ffffff;stroke-width:0.78007;stroke-opacity:1;marker-end:url(#marker4820-2-3-6)"
       d="M 153.56208,248.65203 V 224.66155"
       id="path4693-97-1-9"
       sodipodi:nodetypes="cc" />
    <ellipse
       style="fill:#0000ff;stroke:none;stroke-width:0.456269;stroke-dasharray:none;stroke-opacity:1"
       id="path4607-2-9"
       cx="157.89426"
       cy="240.87741"
       rx="2.7149665"
       ry="2.7149661" />
    <g
       inkscape:label=""
       transform="matrix(1.4223223,0,0,1.4223223,171.50372,223.09277)"
       id="g787">
      <g
         clip-path="url(#clipPath8322)"
         id="g46"
         transform="matrix(0.352778,0,0,0.352778,-0.347266,0.00436558)">
        <g
           fill="#000000"
           fill-opacity="1"
           id="g44">
          <g
             id="use42"
             transform="translate(0,7.4720001)">
            <path
               d="m 3.296875,2.390625 c 0,-0.03125 0,-0.046875 -0.171875,-0.21875 C 1.890625,0.921875 1.5625,-0.96875 1.5625,-2.5 c 0,-1.734375 0.375,-3.46875 1.609375,-4.703125 0.125,-0.125 0.125,-0.140625 0.125,-0.171875 0,-0.078125 -0.03125,-0.109375 -0.09375,-0.109375 -0.109375,0 -1,0.6875 -1.59375,1.953125 -0.5,1.09375 -0.625,2.203125 -0.625,3.03125 0,0.78125 0.109375,1.984375 0.65625,3.125 C 2.25,1.84375 3.09375,2.5 3.203125,2.5 c 0.0625,0 0.09375,-0.03125 0.09375,-0.109375 z m 0,0"
               id="path96" />
          </g>
        </g>
      </g>
      <g
         fill="#000000"
         fill-opacity="1"
         id="g50"
         transform="matrix(0.352778,0,0,0.352778,-0.347266,0.00436558)">
        <g
           id="use48"
           transform="translate(3.8740001,7.4720001)">
          <path
             d="M 3.71875,-3.765625 C 3.53125,-4.140625 3.25,-4.40625 2.796875,-4.40625 c -1.15625,0 -2.390625,1.46875 -2.390625,2.921875 0,0.9375 0.546875,1.59375 1.3125,1.59375 0.203125,0 0.703125,-0.046875 1.296875,-0.75 0.078125,0.421875 0.4375,0.75 0.90625,0.75 0.359375,0 0.578125,-0.234375 0.75,-0.546875 0.15625,-0.359375 0.296875,-0.96875 0.296875,-0.984375 0,-0.109375 -0.09375,-0.109375 -0.125,-0.109375 -0.09375,0 -0.109375,0.046875 -0.140625,0.1875 -0.171875,0.640625 -0.34375,1.234375 -0.75,1.234375 -0.28125,0 -0.296875,-0.265625 -0.296875,-0.453125 0,-0.21875 0.015625,-0.3125 0.125,-0.75 C 3.890625,-1.71875 3.90625,-1.828125 4,-2.203125 L 4.359375,-3.59375 c 0.0625,-0.28125 0.0625,-0.296875 0.0625,-0.34375 0,-0.171875 -0.109375,-0.265625 -0.28125,-0.265625 -0.25,0 -0.390625,0.21875 -0.421875,0.4375 z M 3.078125,-1.1875 C 3.015625,-1 3.015625,-0.984375 2.875,-0.8125 2.4375,-0.265625 2.03125,-0.109375 1.75,-0.109375 c -0.5,0 -0.640625,-0.546875 -0.640625,-0.9375 0,-0.5 0.3125,-1.71875 0.546875,-2.1875 0.3125,-0.578125 0.75,-0.953125 1.15625,-0.953125 0.640625,0 0.78125,0.8125 0.78125,0.875 0,0.0625 -0.015625,0.125 -0.03125,0.171875 z m 0,0"
             id="path100" />
        </g>
      </g>
      <g
         fill="#000000"
         fill-opacity="1"
         id="g54"
         transform="matrix(0.352778,0,0,0.352778,-0.347266,0.00436558)">
        <g
           id="use52"
           transform="translate(9.1409998,8.967)">
          <path
             d="m 2.328125,-4.4375 c 0,-0.1875 0,-0.1875 -0.203125,-0.1875 -0.453125,0.4375 -1.078125,0.4375 -1.359375,0.4375 v 0.25 c 0.15625,0 0.625,0 1,-0.1875 v 3.546875 c 0,0.234375 0,0.328125 -0.6875,0.328125 H 0.8125 V 0 c 0.125,0 0.984375,-0.03125 1.234375,-0.03125 0.21875,0 1.09375,0.03125 1.25,0.03125 V -0.25 H 3.03125 c -0.703125,0 -0.703125,-0.09375 -0.703125,-0.328125 z m 0,0"
             id="path104" />
        </g>
      </g>
      <g
         clip-path="url(#clipPath3981)"
         id="g60"
         transform="matrix(0.352778,0,0,0.352778,-0.347266,0.00436558)">
        <g
           fill="#000000"
           fill-opacity="1"
           id="g58">
          <g
             id="use56"
             transform="translate(13.61,7.4720001)">
            <path
               d="m 2.03125,-0.015625 c 0,-0.65625 -0.25,-1.046875 -0.640625,-1.046875 -0.328125,0 -0.53125,0.25 -0.53125,0.53125 C 0.859375,-0.265625 1.0625,0 1.390625,0 1.5,0 1.640625,-0.046875 1.734375,-0.125 1.765625,-0.15625 1.78125,-0.15625 1.78125,-0.15625 c 0.015625,0 0.015625,0 0.015625,0.140625 0,0.75 -0.34375,1.34375 -0.671875,1.671875 -0.109375,0.109375 -0.109375,0.125 -0.109375,0.15625 0,0.078125 0.046875,0.109375 0.09375,0.109375 0.109375,0 0.921875,-0.765625 0.921875,-1.9375 z m 0,0"
               id="path108" />
          </g>
        </g>
      </g>
      <g
         fill="#000000"
         fill-opacity="1"
         id="g64"
         transform="matrix(0.352778,0,0,0.352778,-0.347266,0.00436558)">
        <g
           id="use62"
           transform="translate(18.041365,7.4720001)">
          <path
             d="M 3.71875,-3.765625 C 3.53125,-4.140625 3.25,-4.40625 2.796875,-4.40625 c -1.15625,0 -2.390625,1.46875 -2.390625,2.921875 0,0.9375 0.546875,1.59375 1.3125,1.59375 0.203125,0 0.703125,-0.046875 1.296875,-0.75 0.078125,0.421875 0.4375,0.75 0.90625,0.75 0.359375,0 0.578125,-0.234375 0.75,-0.546875 0.15625,-0.359375 0.296875,-0.96875 0.296875,-0.984375 0,-0.109375 -0.09375,-0.109375 -0.125,-0.109375 -0.09375,0 -0.109375,0.046875 -0.140625,0.1875 -0.171875,0.640625 -0.34375,1.234375 -0.75,1.234375 -0.28125,0 -0.296875,-0.265625 -0.296875,-0.453125 0,-0.21875 0.015625,-0.3125 0.125,-0.75 C 3.890625,-1.71875 3.90625,-1.828125 4,-2.203125 L 4.359375,-3.59375 c 0.0625,-0.28125 0.0625,-0.296875 0.0625,-0.34375 0,-0.171875 -0.109375,-0.265625 -0.28125,-0.265625 -0.25,0 -0.390625,0.21875 -0.421875,0.4375 z M 3.078125,-1.1875 C 3.015625,-1 3.015625,-0.984375 2.875,-0.8125 2.4375,-0.265625 2.03125,-0.109375 1.75,-0.109375 c -0.5,0 -0.640625,-0.546875 -0.640625,-0.9375 0,-0.5 0.3125,-1.71875 0.546875,-2.1875 0.3125,-0.578125 0.75,-0.953125 1.15625,-0.953125 0.640625,0 0.78125,0.8125 0.78125,0.875 0,0.0625 -0.015625,0.125 -0.03125,0.171875 z m 0,0"
             id="path112" />
        </g>
      </g>
      <g
         fill="#000000"
         fill-opacity="1"
         id="g68"
         transform="matrix(0.352778,0,0,0.352778,-0.347266,0.00436558)">
        <g
           id="use66"
           transform="translate(23.304001,8.967)">
          <path
             d="M 3.515625,-1.265625 H 3.28125 c -0.015625,0.15625 -0.09375,0.5625 -0.1875,0.625 C 3.046875,-0.59375 2.515625,-0.59375 2.40625,-0.59375 H 1.125 c 0.734375,-0.640625 0.984375,-0.84375 1.390625,-1.171875 0.515625,-0.40625 1,-0.84375 1,-1.5 0,-0.84375 -0.734375,-1.359375 -1.625,-1.359375 -0.859375,0 -1.453125,0.609375 -1.453125,1.25 0,0.34375 0.296875,0.390625 0.375,0.390625 0.15625,0 0.359375,-0.125 0.359375,-0.375 0,-0.125 -0.046875,-0.375 -0.40625,-0.375 C 0.984375,-4.21875 1.453125,-4.375 1.78125,-4.375 c 0.703125,0 1.0625,0.546875 1.0625,1.109375 0,0.609375 -0.4375,1.078125 -0.65625,1.328125 L 0.515625,-0.265625 C 0.4375,-0.203125 0.4375,-0.1875 0.4375,0 h 2.875 z m 0,0"
             id="path116" />
        </g>
      </g>
      <g
         clip-path="url(#clipPath8752)"
         id="g74"
         transform="matrix(0.352778,0,0,0.352778,-0.347266,0.00436558)">
        <g
           fill="#000000"
           fill-opacity="1"
           id="g72">
          <g
             id="use70"
             transform="translate(27.773001,7.4720001)">
            <path
               d="m 2.03125,-0.015625 c 0,-0.65625 -0.25,-1.046875 -0.640625,-1.046875 -0.328125,0 -0.53125,0.25 -0.53125,0.53125 C 0.859375,-0.265625 1.0625,0 1.390625,0 1.5,0 1.640625,-0.046875 1.734375,-0.125 1.765625,-0.15625 1.78125,-0.15625 1.78125,-0.15625 c 0.015625,0 0.015625,0 0.015625,0.140625 0,0.75 -0.34375,1.34375 -0.671875,1.671875 -0.109375,0.109375 -0.109375,0.125 -0.109375,0.15625 0,0.078125 0.046875,0.109375 0.09375,0.109375 0.109375,0 0.921875,-0.765625 0.921875,-1.9375 z m 0,0"
               id="path120" />
          </g>
        </g>
      </g>
      <g
         fill="#000000"
         fill-opacity="1"
         id="g78"
         transform="matrix(0.352778,0,0,0.352778,-0.347266,0.00436558)">
        <g
           id="use76"
           transform="translate(32.204365,7.4720001)">
          <path
             d="M 3.71875,-3.765625 C 3.53125,-4.140625 3.25,-4.40625 2.796875,-4.40625 c -1.15625,0 -2.390625,1.46875 -2.390625,2.921875 0,0.9375 0.546875,1.59375 1.3125,1.59375 0.203125,0 0.703125,-0.046875 1.296875,-0.75 0.078125,0.421875 0.4375,0.75 0.90625,0.75 0.359375,0 0.578125,-0.234375 0.75,-0.546875 0.15625,-0.359375 0.296875,-0.96875 0.296875,-0.984375 0,-0.109375 -0.09375,-0.109375 -0.125,-0.109375 -0.09375,0 -0.109375,0.046875 -0.140625,0.1875 -0.171875,0.640625 -0.34375,1.234375 -0.75,1.234375 -0.28125,0 -0.296875,-0.265625 -0.296875,-0.453125 0,-0.21875 0.015625,-0.3125 0.125,-0.75 C 3.890625,-1.71875 3.90625,-1.828125 4,-2.203125 L 4.359375,-3.59375 c 0.0625,-0.28125 0.0625,-0.296875 0.0625,-0.34375 0,-0.171875 -0.109375,-0.265625 -0.28125,-0.265625 -0.25,0 -0.390625,0.21875 -0.421875,0.4375 z M 3.078125,-1.1875 C 3.015625,-1 3.015625,-0.984375 2.875,-0.8125 2.4375,-0.265625 2.03125,-0.109375 1.75,-0.109375 c -0.5,0 -0.640625,-0.546875 -0.640625,-0.9375 0,-0.5 0.3125,-1.71875 0.546875,-2.1875 0.3125,-0.578125 0.75,-0.953125 1.15625,-0.953125 0.640625,0 0.78125,0.8125 0.78125,0.875 0,0.0625 -0.015625,0.125 -0.03125,0.171875 z m 0,0"
             id="path124" />
        </g>
      </g>
      <g
         clip-path="url(#clipPath1161)"
         id="g84"
         transform="matrix(0.352778,0,0,0.352778,-0.347266,0.00436558)">
        <g
           fill="#000000"
           fill-opacity="1"
           id="g82">
          <g
             id="use80"
             transform="translate(37.466999,8.967)">
            <path
               d="m 1.90625,-2.328125 c 0.546875,0 0.9375,0.375 0.9375,1.125 0,0.859375 -0.515625,1.125 -0.90625,1.125 -0.28125,0 -0.90625,-0.078125 -1.1875,-0.5 0.328125,0 0.40625,-0.234375 0.40625,-0.390625 0,-0.21875 -0.171875,-0.375 -0.390625,-0.375 -0.1875,0 -0.390625,0.125 -0.390625,0.40625 0,0.65625 0.71875,1.078125 1.5625,1.078125 0.96875,0 1.640625,-0.65625 1.640625,-1.34375 0,-0.546875 -0.4375,-1.09375 -1.203125,-1.25 0.71875,-0.265625 0.984375,-0.78125 0.984375,-1.21875 0,-0.546875 -0.625,-0.953125 -1.40625,-0.953125 -0.765625,0 -1.359375,0.375 -1.359375,0.9375 0,0.234375 0.15625,0.359375 0.359375,0.359375 0.21875,0 0.359375,-0.15625 0.359375,-0.34375 0,-0.203125 -0.140625,-0.359375 -0.359375,-0.375 0.25,-0.296875 0.71875,-0.375 0.984375,-0.375 0.3125,0 0.75,0.15625 0.75,0.75 0,0.296875 -0.09375,0.625 -0.28125,0.828125 -0.21875,0.265625 -0.421875,0.28125 -0.765625,0.3125 -0.171875,0.015625 -0.1875,0.015625 -0.21875,0.015625 -0.015625,0 -0.078125,0.015625 -0.078125,0.09375 0,0.09375 0.0625,0.09375 0.1875,0.09375 z m 0,0"
               id="path128" />
          </g>
        </g>
      </g>
      <g
         clip-path="url(#clipPath1214)"
         id="g90"
         transform="matrix(0.352778,0,0,0.352778,-0.347266,0.00436558)">
        <g
           fill="#000000"
           fill-opacity="1"
           id="g88">
          <g
             id="use86"
             transform="translate(41.937,7.4720001)">
            <path
               d="m 2.875,-2.5 c 0,-0.765625 -0.109375,-1.96875 -0.65625,-3.109375 -0.59375,-1.21875 -1.453125,-1.875 -1.546875,-1.875 -0.0625,0 -0.109375,0.046875 -0.109375,0.109375 0,0.03125 0,0.046875 0.1875,0.234375 0.984375,0.984375 1.546875,2.5625 1.546875,4.640625 0,1.71875 -0.359375,3.46875 -1.59375,4.71875 C 0.5625,2.34375 0.5625,2.359375 0.5625,2.390625 0.5625,2.453125 0.609375,2.5 0.671875,2.5 0.765625,2.5 1.671875,1.8125 2.25,0.546875 2.765625,-0.546875 2.875,-1.65625 2.875,-2.5 Z m 0,0"
               id="path132" />
          </g>
        </g>
      </g>
    </g>
    <g
       inkscape:label=""
       transform="matrix(1.4223223,0,0,1.4223223,98.407935,183.77653)"
       id="g1266">
      <g
         clip-path="url(#clipPath9908)"
         id="g1202"
         transform="matrix(0.352778,0,0,0.352778,-0.347266,0.00436558)">
        <g
           fill="#000000"
           fill-opacity="1"
           id="g1200">
          <g
             id="g1198"
             transform="translate(0,7.4720001)">
            <path
               d="m 3.296875,2.390625 c 0,-0.03125 0,-0.046875 -0.171875,-0.21875 C 1.890625,0.921875 1.5625,-0.96875 1.5625,-2.5 c 0,-1.734375 0.375,-3.46875 1.609375,-4.703125 0.125,-0.125 0.125,-0.140625 0.125,-0.171875 0,-0.078125 -0.03125,-0.109375 -0.09375,-0.109375 -0.109375,0 -1,0.6875 -1.59375,1.953125 -0.5,1.09375 -0.625,2.203125 -0.625,3.03125 0,0.78125 0.109375,1.984375 0.65625,3.125 C 2.25,1.84375 3.09375,2.5 3.203125,2.5 c 0.0625,0 0.09375,-0.03125 0.09375,-0.109375 z m 0,0"
               id="path1196" />
          </g>
        </g>
      </g>
      <g
         fill="#000000"
         fill-opacity="1"
         id="g1208"
         transform="matrix(0.352778,0,0,0.352778,-0.347266,0.00436558)">
        <g
           id="g1206"
           transform="translate(3.8740001,7.4720001)">
          <path
             d="m 2.375,-6.8125 c 0,0 0,-0.109375 -0.125,-0.109375 -0.21875,0 -0.953125,0.078125 -1.21875,0.109375 -0.078125,0 -0.1875,0.015625 -0.1875,0.1875 0,0.125 0.09375,0.125 0.25,0.125 0.46875,0 0.484375,0.0625 0.484375,0.171875 0,0.0625 -0.078125,0.40625 -0.125,0.609375 l -0.828125,3.25 c -0.109375,0.5 -0.15625,0.671875 -0.15625,1.015625 0,0.9375 0.53125,1.5625 1.265625,1.5625 1.171875,0 2.40625,-1.484375 2.40625,-2.921875 0,-0.90625 -0.53125,-1.59375 -1.328125,-1.59375 -0.453125,0 -0.875,0.296875 -1.171875,0.59375 z M 1.453125,-3.046875 C 1.5,-3.265625 1.5,-3.28125 1.59375,-3.390625 2.078125,-4.03125 2.53125,-4.1875 2.796875,-4.1875 c 0.359375,0 0.625,0.296875 0.625,0.9375 0,0.59375 -0.328125,1.734375 -0.515625,2.109375 -0.328125,0.671875 -0.78125,1.03125 -1.171875,1.03125 -0.34375,0 -0.671875,-0.265625 -0.671875,-1 0,-0.203125 0,-0.390625 0.15625,-1.015625 z m 0,0"
             id="path1204" />
        </g>
      </g>
      <g
         fill="#000000"
         fill-opacity="1"
         id="g1214"
         transform="matrix(0.352778,0,0,0.352778,-0.347266,0.00436558)">
        <g
           id="g1212"
           transform="translate(8.1499996,8.967)">
          <path
             d="m 2.328125,-4.4375 c 0,-0.1875 0,-0.1875 -0.203125,-0.1875 -0.453125,0.4375 -1.078125,0.4375 -1.359375,0.4375 v 0.25 c 0.15625,0 0.625,0 1,-0.1875 v 3.546875 c 0,0.234375 0,0.328125 -0.6875,0.328125 H 0.8125 V 0 c 0.125,0 0.984375,-0.03125 1.234375,-0.03125 0.21875,0 1.09375,0.03125 1.25,0.03125 V -0.25 H 3.03125 c -0.703125,0 -0.703125,-0.09375 -0.703125,-0.328125 z m 0,0"
             id="path1210" />
        </g>
      </g>
      <g
         clip-path="url(#clipPath2575)"
         id="g1222"
         transform="matrix(0.352778,0,0,0.352778,-0.347266,0.00436558)">
        <g
           fill="#000000"
           fill-opacity="1"
           id="g1220">
          <g
             id="g1218"
             transform="translate(12.619,7.4720001)">
            <path
               d="m 2.03125,-0.015625 c 0,-0.65625 -0.25,-1.046875 -0.640625,-1.046875 -0.328125,0 -0.53125,0.25 -0.53125,0.53125 C 0.859375,-0.265625 1.0625,0 1.390625,0 1.5,0 1.640625,-0.046875 1.734375,-0.125 1.765625,-0.15625 1.78125,-0.15625 1.78125,-0.15625 c 0.015625,0 0.015625,0 0.015625,0.140625 0,0.75 -0.34375,1.34375 -0.671875,1.671875 -0.109375,0.109375 -0.109375,0.125 -0.109375,0.15625 0,0.078125 0.046875,0.109375 0.09375,0.109375 0.109375,0 0.921875,-0.765625 0.921875,-1.9375 z m 0,0"
               id="path1216" />
          </g>
        </g>
      </g>
      <g
         fill="#000000"
         fill-opacity="1"
         id="g1228"
         transform="matrix(0.352778,0,0,0.352778,-0.347266,0.00436558)">
        <g
           id="g1226"
           transform="translate(17.050364,7.4720001)">
          <path
             d="m 2.375,-6.8125 c 0,0 0,-0.109375 -0.125,-0.109375 -0.21875,0 -0.953125,0.078125 -1.21875,0.109375 -0.078125,0 -0.1875,0.015625 -0.1875,0.1875 0,0.125 0.09375,0.125 0.25,0.125 0.46875,0 0.484375,0.0625 0.484375,0.171875 0,0.0625 -0.078125,0.40625 -0.125,0.609375 l -0.828125,3.25 c -0.109375,0.5 -0.15625,0.671875 -0.15625,1.015625 0,0.9375 0.53125,1.5625 1.265625,1.5625 1.171875,0 2.40625,-1.484375 2.40625,-2.921875 0,-0.90625 -0.53125,-1.59375 -1.328125,-1.59375 -0.453125,0 -0.875,0.296875 -1.171875,0.59375 z M 1.453125,-3.046875 C 1.5,-3.265625 1.5,-3.28125 1.59375,-3.390625 2.078125,-4.03125 2.53125,-4.1875 2.796875,-4.1875 c 0.359375,0 0.625,0.296875 0.625,0.9375 0,0.59375 -0.328125,1.734375 -0.515625,2.109375 -0.328125,0.671875 -0.78125,1.03125 -1.171875,1.03125 -0.34375,0 -0.671875,-0.265625 -0.671875,-1 0,-0.203125 0,-0.390625 0.15625,-1.015625 z m 0,0"
             id="path1224" />
        </g>
      </g>
      <g
         fill="#000000"
         fill-opacity="1"
         id="g1234"
         transform="matrix(0.352778,0,0,0.352778,-0.347266,0.00436558)">
        <g
           id="g1232"
           transform="translate(21.323,8.967)">
          <path
             d="M 3.515625,-1.265625 H 3.28125 c -0.015625,0.15625 -0.09375,0.5625 -0.1875,0.625 C 3.046875,-0.59375 2.515625,-0.59375 2.40625,-0.59375 H 1.125 c 0.734375,-0.640625 0.984375,-0.84375 1.390625,-1.171875 0.515625,-0.40625 1,-0.84375 1,-1.5 0,-0.84375 -0.734375,-1.359375 -1.625,-1.359375 -0.859375,0 -1.453125,0.609375 -1.453125,1.25 0,0.34375 0.296875,0.390625 0.375,0.390625 0.15625,0 0.359375,-0.125 0.359375,-0.375 0,-0.125 -0.046875,-0.375 -0.40625,-0.375 C 0.984375,-4.21875 1.453125,-4.375 1.78125,-4.375 c 0.703125,0 1.0625,0.546875 1.0625,1.109375 0,0.609375 -0.4375,1.078125 -0.65625,1.328125 L 0.515625,-0.265625 C 0.4375,-0.203125 0.4375,-0.1875 0.4375,0 h 2.875 z m 0,0"
             id="path1230" />
        </g>
      </g>
      <g
         clip-path="url(#clipPath7483)"
         id="g1242"
         transform="matrix(0.352778,0,0,0.352778,-0.347266,0.00436558)">
        <g
           fill="#000000"
           fill-opacity="1"
           id="g1240">
          <g
             id="g1238"
             transform="translate(25.792,7.4720001)">
            <path
               d="m 2.03125,-0.015625 c 0,-0.65625 -0.25,-1.046875 -0.640625,-1.046875 -0.328125,0 -0.53125,0.25 -0.53125,0.53125 C 0.859375,-0.265625 1.0625,0 1.390625,0 1.5,0 1.640625,-0.046875 1.734375,-0.125 1.765625,-0.15625 1.78125,-0.15625 1.78125,-0.15625 c 0.015625,0 0.015625,0 0.015625,0.140625 0,0.75 -0.34375,1.34375 -0.671875,1.671875 -0.109375,0.109375 -0.109375,0.125 -0.109375,0.15625 0,0.078125 0.046875,0.109375 0.09375,0.109375 0.109375,0 0.921875,-0.765625 0.921875,-1.9375 z m 0,0"
               id="path1236" />
          </g>
        </g>
      </g>
      <g
         fill="#000000"
         fill-opacity="1"
         id="g1248"
         transform="matrix(0.352778,0,0,0.352778,-0.347266,0.00436558)">
        <g
           id="g1246"
           transform="translate(30.223364,7.4720001)">
          <path
             d="m 2.375,-6.8125 c 0,0 0,-0.109375 -0.125,-0.109375 -0.21875,0 -0.953125,0.078125 -1.21875,0.109375 -0.078125,0 -0.1875,0.015625 -0.1875,0.1875 0,0.125 0.09375,0.125 0.25,0.125 0.46875,0 0.484375,0.0625 0.484375,0.171875 0,0.0625 -0.078125,0.40625 -0.125,0.609375 l -0.828125,3.25 c -0.109375,0.5 -0.15625,0.671875 -0.15625,1.015625 0,0.9375 0.53125,1.5625 1.265625,1.5625 1.171875,0 2.40625,-1.484375 2.40625,-2.921875 0,-0.90625 -0.53125,-1.59375 -1.328125,-1.59375 -0.453125,0 -0.875,0.296875 -1.171875,0.59375 z M 1.453125,-3.046875 C 1.5,-3.265625 1.5,-3.28125 1.59375,-3.390625 2.078125,-4.03125 2.53125,-4.1875 2.796875,-4.1875 c 0.359375,0 0.625,0.296875 0.625,0.9375 0,0.59375 -0.328125,1.734375 -0.515625,2.109375 -0.328125,0.671875 -0.78125,1.03125 -1.171875,1.03125 -0.34375,0 -0.671875,-0.265625 -0.671875,-1 0,-0.203125 0,-0.390625 0.15625,-1.015625 z m 0,0"
             id="path1244" />
        </g>
      </g>
      <g
         clip-path="url(#clipPath7122)"
         id="g1256"
         transform="matrix(0.352778,0,0,0.352778,-0.347266,0.00436558)">
        <g
           fill="#000000"
           fill-opacity="1"
           id="g1254">
          <g
             id="g1252"
             transform="translate(34.495998,8.967)">
            <path
               d="m 1.90625,-2.328125 c 0.546875,0 0.9375,0.375 0.9375,1.125 0,0.859375 -0.515625,1.125 -0.90625,1.125 -0.28125,0 -0.90625,-0.078125 -1.1875,-0.5 0.328125,0 0.40625,-0.234375 0.40625,-0.390625 0,-0.21875 -0.171875,-0.375 -0.390625,-0.375 -0.1875,0 -0.390625,0.125 -0.390625,0.40625 0,0.65625 0.71875,1.078125 1.5625,1.078125 0.96875,0 1.640625,-0.65625 1.640625,-1.34375 0,-0.546875 -0.4375,-1.09375 -1.203125,-1.25 0.71875,-0.265625 0.984375,-0.78125 0.984375,-1.21875 0,-0.546875 -0.625,-0.953125 -1.40625,-0.953125 -0.765625,0 -1.359375,0.375 -1.359375,0.9375 0,0.234375 0.15625,0.359375 0.359375,0.359375 0.21875,0 0.359375,-0.15625 0.359375,-0.34375 0,-0.203125 -0.140625,-0.359375 -0.359375,-0.375 0.25,-0.296875 0.71875,-0.375 0.984375,-0.375 0.3125,0 0.75,0.15625 0.75,0.75 0,0.296875 -0.09375,0.625 -0.28125,0.828125 -0.21875,0.265625 -0.421875,0.28125 -0.765625,0.3125 -0.171875,0.015625 -0.1875,0.015625 -0.21875,0.015625 -0.015625,0 -0.078125,0.015625 -0.078125,0.09375 0,0.09375 0.0625,0.09375 0.1875,0.09375 z m 0,0"
               id="path1250" />
          </g>
        </g>
      </g>
      <g
         clip-path="url(#clipPath5750)"
         id="g1264"
         transform="matrix(0.352778,0,0,0.352778,-0.347266,0.00436558)">
        <g
           fill="#000000"
           fill-opacity="1"
           id="g1262">
          <g
             id="g1260"
             transform="translate(38.965,7.4720001)">
            <path
               d="m 2.875,-2.5 c 0,-0.765625 -0.109375,-1.96875 -0.65625,-3.109375 -0.59375,-1.21875 -1.453125,-1.875 -1.546875,-1.875 -0.0625,0 -0.109375,0.046875 -0.109375,0.109375 0,0.03125 0,0.046875 0.1875,0.234375 0.984375,0.984375 1.546875,2.5625 1.546875,4.640625 0,1.71875 -0.359375,3.46875 -1.59375,4.71875 C 0.5625,2.34375 0.5625,2.359375 0.5625,2.390625 0.5625,2.453125 0.609375,2.5 0.671875,2.5 0.765625,2.5 1.671875,1.8125 2.25,0.546875 2.765625,-0.546875 2.875,-1.65625 2.875,-2.5 Z m 0,0"
               id="path1258" />
          </g>
        </g>
      </g>
    </g>
    <g
       inkscape:label=""
       transform="matrix(1.4223223,0,0,1.4223223,114.05669,241.08558)"
       id="g1812">
      <g
         clip-path="url(#clipPath6319)"
         id="g55"
         transform="matrix(0.352778,0,0,0.352778,-0.347266,0.00436558)">
        <g
           fill="#000000"
           fill-opacity="1"
           id="g53">
          <g
             id="use51"
             transform="translate(0,7.4720001)">
            <path
               d="m 3.296875,2.390625 c 0,-0.03125 0,-0.046875 -0.171875,-0.21875 C 1.890625,0.921875 1.5625,-0.96875 1.5625,-2.5 c 0,-1.734375 0.375,-3.46875 1.609375,-4.703125 0.125,-0.125 0.125,-0.140625 0.125,-0.171875 0,-0.078125 -0.03125,-0.109375 -0.09375,-0.109375 -0.109375,0 -1,0.6875 -1.59375,1.953125 -0.5,1.09375 -0.625,2.203125 -0.625,3.03125 0,0.78125 0.109375,1.984375 0.65625,3.125 C 2.25,1.84375 3.09375,2.5 3.203125,2.5 c 0.0625,0 0.09375,-0.03125 0.09375,-0.109375 z m 0,0"
               id="path111" />
          </g>
        </g>
      </g>
      <g
         clip-path="url(#clipPath8106)"
         id="g61"
         transform="matrix(0.352778,0,0,0.352778,-0.347266,0.00436558)">
        <g
           fill="#000000"
           fill-opacity="1"
           id="g59">
          <g
             id="use57"
             transform="translate(3.8740001,7.4720001)">
            <path
               d="M 0.453125,1.21875 C 0.375,1.5625 0.34375,1.625 -0.09375,1.625 c -0.109375,0 -0.21875,0 -0.21875,0.1875 0,0.078125 0.046875,0.125 0.125,0.125 0.265625,0 0.5625,-0.03125 0.828125,-0.03125 0.34375,0 0.671875,0.03125 1,0.03125 0.046875,0 0.171875,0 0.171875,-0.203125 C 1.8125,1.625 1.71875,1.625 1.578125,1.625 c -0.5,0 -0.5,-0.0625 -0.5,-0.15625 0,-0.125 0.421875,-1.75 0.484375,-2 0.125,0.296875 0.40625,0.640625 0.921875,0.640625 1.15625,0 2.40625,-1.453125 2.40625,-2.921875 0,-0.9375 -0.578125,-1.59375 -1.328125,-1.59375 -0.5,0 -0.984375,0.359375 -1.3125,0.75 -0.09375,-0.546875 -0.53125,-0.75 -0.890625,-0.75 -0.46875,0 -0.65625,0.390625 -0.734375,0.5625 C 0.4375,-3.5 0.3125,-2.90625 0.3125,-2.875 c 0,0.109375 0.09375,0.109375 0.109375,0.109375 0.109375,0 0.109375,-0.015625 0.171875,-0.234375 0.171875,-0.703125 0.375,-1.1875 0.734375,-1.1875 0.171875,0 0.3125,0.078125 0.3125,0.453125 0,0.234375 -0.03125,0.34375 -0.078125,0.515625 z m 1.75,-4.328125 C 2.265625,-3.375 2.546875,-3.65625 2.71875,-3.8125 c 0.359375,-0.296875 0.640625,-0.375 0.8125,-0.375 0.390625,0 0.640625,0.34375 0.640625,0.9375 0,0.59375 -0.328125,1.734375 -0.515625,2.109375 -0.34375,0.703125 -0.8125,1.03125 -1.1875,1.03125 C 1.8125,-0.109375 1.6875,-0.9375 1.6875,-1 c 0,-0.015625 0,-0.03125 0.03125,-0.15625 z m 0,0"
               id="path115" />
          </g>
        </g>
      </g>
      <g
         fill="#000000"
         fill-opacity="1"
         id="g65"
         transform="matrix(0.352778,0,0,0.352778,-0.347266,0.00436558)">
        <g
           id="use63"
           transform="translate(8.8870001,8.967)">
          <path
             d="m 2.328125,-4.4375 c 0,-0.1875 0,-0.1875 -0.203125,-0.1875 -0.453125,0.4375 -1.078125,0.4375 -1.359375,0.4375 v 0.25 c 0.15625,0 0.625,0 1,-0.1875 v 3.546875 c 0,0.234375 0,0.328125 -0.6875,0.328125 H 0.8125 V 0 c 0.125,0 0.984375,-0.03125 1.234375,-0.03125 0.21875,0 1.09375,0.03125 1.25,0.03125 V -0.25 H 3.03125 c -0.703125,0 -0.703125,-0.09375 -0.703125,-0.328125 z m 0,0"
             id="path119" />
        </g>
      </g>
      <g
         clip-path="url(#clipPath8006)"
         id="g71"
         transform="matrix(0.352778,0,0,0.352778,-0.347266,0.00436558)">
        <g
           fill="#000000"
           fill-opacity="1"
           id="g69">
          <g
             id="use67"
             transform="translate(13.356,7.4720001)">
            <path
               d="m 2.03125,-0.015625 c 0,-0.65625 -0.25,-1.046875 -0.640625,-1.046875 -0.328125,0 -0.53125,0.25 -0.53125,0.53125 C 0.859375,-0.265625 1.0625,0 1.390625,0 1.5,0 1.640625,-0.046875 1.734375,-0.125 1.765625,-0.15625 1.78125,-0.15625 1.78125,-0.15625 c 0.015625,0 0.015625,0 0.015625,0.140625 0,0.75 -0.34375,1.34375 -0.671875,1.671875 -0.109375,0.109375 -0.109375,0.125 -0.109375,0.15625 0,0.078125 0.046875,0.109375 0.09375,0.109375 0.109375,0 0.921875,-0.765625 0.921875,-1.9375 z m 0,0"
               id="path123" />
          </g>
        </g>
      </g>
      <g
         clip-path="url(#clipPath4440)"
         id="g77"
         transform="matrix(0.352778,0,0,0.352778,-0.347266,0.00436558)">
        <g
           fill="#000000"
           fill-opacity="1"
           id="g75">
          <g
             id="use73"
             transform="translate(17.787363,7.4720001)">
            <path
               d="M 0.453125,1.21875 C 0.375,1.5625 0.34375,1.625 -0.09375,1.625 c -0.109375,0 -0.21875,0 -0.21875,0.1875 0,0.078125 0.046875,0.125 0.125,0.125 0.265625,0 0.5625,-0.03125 0.828125,-0.03125 0.34375,0 0.671875,0.03125 1,0.03125 0.046875,0 0.171875,0 0.171875,-0.203125 C 1.8125,1.625 1.71875,1.625 1.578125,1.625 c -0.5,0 -0.5,-0.0625 -0.5,-0.15625 0,-0.125 0.421875,-1.75 0.484375,-2 0.125,0.296875 0.40625,0.640625 0.921875,0.640625 1.15625,0 2.40625,-1.453125 2.40625,-2.921875 0,-0.9375 -0.578125,-1.59375 -1.328125,-1.59375 -0.5,0 -0.984375,0.359375 -1.3125,0.75 -0.09375,-0.546875 -0.53125,-0.75 -0.890625,-0.75 -0.46875,0 -0.65625,0.390625 -0.734375,0.5625 C 0.4375,-3.5 0.3125,-2.90625 0.3125,-2.875 c 0,0.109375 0.09375,0.109375 0.109375,0.109375 0.109375,0 0.109375,-0.015625 0.171875,-0.234375 0.171875,-0.703125 0.375,-1.1875 0.734375,-1.1875 0.171875,0 0.3125,0.078125 0.3125,0.453125 0,0.234375 -0.03125,0.34375 -0.078125,0.515625 z m 1.75,-4.328125 C 2.265625,-3.375 2.546875,-3.65625 2.71875,-3.8125 c 0.359375,-0.296875 0.640625,-0.375 0.8125,-0.375 0.390625,0 0.640625,0.34375 0.640625,0.9375 0,0.59375 -0.328125,1.734375 -0.515625,2.109375 -0.34375,0.703125 -0.8125,1.03125 -1.1875,1.03125 C 1.8125,-0.109375 1.6875,-0.9375 1.6875,-1 c 0,-0.015625 0,-0.03125 0.03125,-0.15625 z m 0,0"
               id="path127" />
          </g>
        </g>
      </g>
      <g
         fill="#000000"
         fill-opacity="1"
         id="g81"
         transform="matrix(0.352778,0,0,0.352778,-0.347266,0.00436558)">
        <g
           id="use79"
           transform="translate(22.796,8.967)">
          <path
             d="M 3.515625,-1.265625 H 3.28125 c -0.015625,0.15625 -0.09375,0.5625 -0.1875,0.625 C 3.046875,-0.59375 2.515625,-0.59375 2.40625,-0.59375 H 1.125 c 0.734375,-0.640625 0.984375,-0.84375 1.390625,-1.171875 0.515625,-0.40625 1,-0.84375 1,-1.5 0,-0.84375 -0.734375,-1.359375 -1.625,-1.359375 -0.859375,0 -1.453125,0.609375 -1.453125,1.25 0,0.34375 0.296875,0.390625 0.375,0.390625 0.15625,0 0.359375,-0.125 0.359375,-0.375 0,-0.125 -0.046875,-0.375 -0.40625,-0.375 C 0.984375,-4.21875 1.453125,-4.375 1.78125,-4.375 c 0.703125,0 1.0625,0.546875 1.0625,1.109375 0,0.609375 -0.4375,1.078125 -0.65625,1.328125 L 0.515625,-0.265625 C 0.4375,-0.203125 0.4375,-0.1875 0.4375,0 h 2.875 z m 0,0"
             id="path131" />
        </g>
      </g>
      <g
         clip-path="url(#clipPath6883)"
         id="g87"
         transform="matrix(0.352778,0,0,0.352778,-0.347266,0.00436558)">
        <g
           fill="#000000"
           fill-opacity="1"
           id="g85">
          <g
             id="use83"
             transform="translate(27.266001,7.4720001)">
            <path
               d="m 2.03125,-0.015625 c 0,-0.65625 -0.25,-1.046875 -0.640625,-1.046875 -0.328125,0 -0.53125,0.25 -0.53125,0.53125 C 0.859375,-0.265625 1.0625,0 1.390625,0 1.5,0 1.640625,-0.046875 1.734375,-0.125 1.765625,-0.15625 1.78125,-0.15625 1.78125,-0.15625 c 0.015625,0 0.015625,0 0.015625,0.140625 0,0.75 -0.34375,1.34375 -0.671875,1.671875 -0.109375,0.109375 -0.109375,0.125 -0.109375,0.15625 0,0.078125 0.046875,0.109375 0.09375,0.109375 0.109375,0 0.921875,-0.765625 0.921875,-1.9375 z m 0,0"
               id="path1795" />
          </g>
        </g>
      </g>
      <g
         clip-path="url(#clipPath6568)"
         id="g93"
         transform="matrix(0.352778,0,0,0.352778,-0.347266,0.00436558)">
        <g
           fill="#000000"
           fill-opacity="1"
           id="g91">
          <g
             id="use89"
             transform="translate(31.697365,7.4720001)">
            <path
               d="M 0.453125,1.21875 C 0.375,1.5625 0.34375,1.625 -0.09375,1.625 c -0.109375,0 -0.21875,0 -0.21875,0.1875 0,0.078125 0.046875,0.125 0.125,0.125 0.265625,0 0.5625,-0.03125 0.828125,-0.03125 0.34375,0 0.671875,0.03125 1,0.03125 0.046875,0 0.171875,0 0.171875,-0.203125 C 1.8125,1.625 1.71875,1.625 1.578125,1.625 c -0.5,0 -0.5,-0.0625 -0.5,-0.15625 0,-0.125 0.421875,-1.75 0.484375,-2 0.125,0.296875 0.40625,0.640625 0.921875,0.640625 1.15625,0 2.40625,-1.453125 2.40625,-2.921875 0,-0.9375 -0.578125,-1.59375 -1.328125,-1.59375 -0.5,0 -0.984375,0.359375 -1.3125,0.75 -0.09375,-0.546875 -0.53125,-0.75 -0.890625,-0.75 -0.46875,0 -0.65625,0.390625 -0.734375,0.5625 C 0.4375,-3.5 0.3125,-2.90625 0.3125,-2.875 c 0,0.109375 0.09375,0.109375 0.109375,0.109375 0.109375,0 0.109375,-0.015625 0.171875,-0.234375 0.171875,-0.703125 0.375,-1.1875 0.734375,-1.1875 0.171875,0 0.3125,0.078125 0.3125,0.453125 0,0.234375 -0.03125,0.34375 -0.078125,0.515625 z m 1.75,-4.328125 C 2.265625,-3.375 2.546875,-3.65625 2.71875,-3.8125 c 0.359375,-0.296875 0.640625,-0.375 0.8125,-0.375 0.390625,0 0.640625,0.34375 0.640625,0.9375 0,0.59375 -0.328125,1.734375 -0.515625,2.109375 -0.34375,0.703125 -0.8125,1.03125 -1.1875,1.03125 C 1.8125,-0.109375 1.6875,-0.9375 1.6875,-1 c 0,-0.015625 0,-0.03125 0.03125,-0.15625 z m 0,0"
               id="path139" />
          </g>
        </g>
      </g>
      <g
         clip-path="url(#clipPath1072)"
         id="g99"
         transform="matrix(0.352778,0,0,0.352778,-0.347266,0.00436558)">
        <g
           fill="#000000"
           fill-opacity="1"
           id="g97">
          <g
             id="use95"
             transform="translate(36.706001,8.967)">
            <path
               d="m 1.90625,-2.328125 c 0.546875,0 0.9375,0.375 0.9375,1.125 0,0.859375 -0.515625,1.125 -0.90625,1.125 -0.28125,0 -0.90625,-0.078125 -1.1875,-0.5 0.328125,0 0.40625,-0.234375 0.40625,-0.390625 0,-0.21875 -0.171875,-0.375 -0.390625,-0.375 -0.1875,0 -0.390625,0.125 -0.390625,0.40625 0,0.65625 0.71875,1.078125 1.5625,1.078125 0.96875,0 1.640625,-0.65625 1.640625,-1.34375 0,-0.546875 -0.4375,-1.09375 -1.203125,-1.25 0.71875,-0.265625 0.984375,-0.78125 0.984375,-1.21875 0,-0.546875 -0.625,-0.953125 -1.40625,-0.953125 -0.765625,0 -1.359375,0.375 -1.359375,0.9375 0,0.234375 0.15625,0.359375 0.359375,0.359375 0.21875,0 0.359375,-0.15625 0.359375,-0.34375 0,-0.203125 -0.140625,-0.359375 -0.359375,-0.375 0.25,-0.296875 0.71875,-0.375 0.984375,-0.375 0.3125,0 0.75,0.15625 0.75,0.75 0,0.296875 -0.09375,0.625 -0.28125,0.828125 -0.21875,0.265625 -0.421875,0.28125 -0.765625,0.3125 -0.171875,0.015625 -0.1875,0.015625 -0.21875,0.015625 -0.015625,0 -0.078125,0.015625 -0.078125,0.09375 0,0.09375 0.0625,0.09375 0.1875,0.09375 z m 0,0"
               id="path143" />
          </g>
        </g>
      </g>
      <g
         clip-path="url(#clipPath8936)"
         id="g105"
         transform="matrix(0.352778,0,0,0.352778,-0.347266,0.00436558)">
        <g
           fill="#000000"
           fill-opacity="1"
           id="g103">
          <g
             id="use101"
             transform="translate(41.174999,7.4720001)">
            <path
               d="m 2.875,-2.5 c 0,-0.765625 -0.109375,-1.96875 -0.65625,-3.109375 -0.59375,-1.21875 -1.453125,-1.875 -1.546875,-1.875 -0.0625,0 -0.109375,0.046875 -0.109375,0.109375 0,0.03125 0,0.046875 0.1875,0.234375 0.984375,0.984375 1.546875,2.5625 1.546875,4.640625 0,1.71875 -0.359375,3.46875 -1.59375,4.71875 C 0.5625,2.34375 0.5625,2.359375 0.5625,2.390625 0.5625,2.453125 0.609375,2.5 0.671875,2.5 0.765625,2.5 1.671875,1.8125 2.25,0.546875 2.765625,-0.546875 2.875,-1.65625 2.875,-2.5 Z m 0,0"
               id="path147" />
          </g>
        </g>
      </g>
    </g>
  </g>
</svg>
